<svg width="25" height="6" viewBox="0 0 25 6" fill="none" xmlns="http://www.w3.org/2000/svg">
<path fill-rule="evenodd" clip-rule="evenodd" d="M2.161 1.41229H3.85332C4.76194 1.41229 5.10399 1.87229 5.05113 2.54808C4.96376 3.66377 4.28928 4.28102 3.39463 4.28102H2.94294C2.82019 4.28102 2.73763 4.36227 2.70443 4.58244L2.51265 5.86238C2.49999 5.94538 2.4563 5.99344 2.39078 5.99999H1.32751C1.22747 5.99999 1.19209 5.92354 1.2183 5.75798L1.86657 1.65474C1.8919 1.49049 1.98189 1.41229 2.161 1.41229Z" fill="#009EE3"/>
<path fill-rule="evenodd" clip-rule="evenodd" d="M9.50824 1.3363C10.0792 1.3363 10.606 1.64602 10.5339 2.41792C10.4466 3.33528 9.95513 3.84289 9.17974 3.84508H8.5022C8.40478 3.84508 8.35761 3.92458 8.33227 4.08752L8.20122 4.92058C8.18156 5.04639 8.11691 5.10842 8.02168 5.10842H7.39132C7.29084 5.10842 7.25589 5.0442 7.27817 4.90048L7.79845 1.56171C7.82422 1.39746 7.88582 1.3363 7.99809 1.3363H9.50693H9.50824ZM8.48167 3.12385H8.99496C9.31603 3.11162 9.52921 2.88927 9.55062 2.48825C9.56372 2.24056 9.39641 2.06321 9.13038 2.06452L8.64723 2.0667L8.48167 3.12385ZM12.2477 4.85287C12.3053 4.80045 12.3639 4.77336 12.3556 4.83802L12.335 4.99266C12.3246 5.07347 12.3564 5.11628 12.4316 5.11628H12.9916C13.086 5.11628 13.1318 5.07828 13.155 4.93237L13.5001 2.76652C13.5176 2.65774 13.4909 2.60445 13.4084 2.60445H12.7924C12.7369 2.60445 12.7098 2.63547 12.6954 2.72021L12.6727 2.85345C12.6609 2.92291 12.629 2.93514 12.5993 2.86524C12.4949 2.61799 12.2284 2.50704 11.8567 2.51577C10.9931 2.53368 10.4108 3.18938 10.3483 4.02986C10.3002 4.67988 10.7659 5.19054 11.3801 5.19054C11.8257 5.19054 12.0249 5.05949 12.2494 4.85418L12.2477 4.85287ZM11.7785 4.51956C11.4067 4.51956 11.1477 4.22294 11.2014 3.85949C11.2552 3.49604 11.6029 3.19943 11.9746 3.19943C12.3464 3.19943 12.6054 3.49604 12.5517 3.85949C12.498 4.22294 12.1507 4.51956 11.7785 4.51956ZM14.5961 2.59746H14.0282C13.9112 2.59746 13.8635 2.68483 13.9007 2.79229L14.6057 4.8568L13.9142 5.83925C13.8561 5.92138 13.9011 5.99608 13.9828 5.99608H14.621C14.6582 6.00038 14.6959 5.99389 14.7295 5.9774C14.7631 5.9609 14.7913 5.93509 14.8106 5.90303L16.9791 2.79273C17.0459 2.69706 17.0145 2.59659 16.9048 2.59659H16.3007C16.1971 2.59659 16.1556 2.63765 16.0962 2.72371L15.192 4.03423L14.7879 2.72065C14.7643 2.64115 14.7053 2.59746 14.5966 2.59746H14.5961Z" fill="#113984"/>
<path fill-rule="evenodd" clip-rule="evenodd" d="M19.2349 1.33632C19.8058 1.33632 20.3326 1.64604 20.2606 2.41794C20.1732 3.3353 19.6817 3.84291 18.9064 3.8451H18.2293C18.1318 3.8451 18.0847 3.9246 18.0593 4.08754L17.9283 4.9206C17.9086 5.04641 17.844 5.10844 17.7487 5.10844H17.1184C17.0179 5.10844 16.9829 5.04422 17.0052 4.9005L17.5264 1.56086C17.5521 1.39661 17.6137 1.33545 17.726 1.33545H19.2349V1.33632ZM18.2083 3.12387H18.7216C19.0426 3.11164 19.2558 2.88929 19.2772 2.48827C19.2903 2.24058 19.123 2.06323 18.857 2.06454L18.3738 2.06672L18.2083 3.12387ZM21.9743 4.85289C22.0319 4.80047 22.0905 4.77338 22.0822 4.83803L22.0616 4.99268C22.0512 5.07349 22.0831 5.1163 22.1582 5.1163H22.7182C22.8126 5.1163 22.8584 5.0783 22.8816 4.93239L23.2267 2.76654C23.2442 2.65776 23.2175 2.60447 23.135 2.60447H22.5199C22.4644 2.60447 22.4373 2.63549 22.4229 2.72023L22.4002 2.85347C22.3884 2.92293 22.3565 2.93516 22.3268 2.86526C22.2224 2.61801 21.9559 2.50706 21.5842 2.51579C20.7206 2.5337 20.1382 3.1894 20.0758 4.02988C20.0277 4.6799 20.4934 5.19056 21.1076 5.19056C21.5532 5.19056 21.7524 5.05951 21.9769 4.8542L21.9743 4.85289ZM21.5056 4.51958C21.1338 4.51958 20.8748 4.22296 20.9285 3.85951C20.9822 3.49606 21.3299 3.19945 21.7017 3.19945C22.0734 3.19945 22.3325 3.49606 22.2788 3.85951C22.225 4.22296 21.8773 4.51958 21.5056 4.51958ZM24.0886 5.1198H23.4421C23.4308 5.1203 23.4196 5.11831 23.4092 5.11398C23.3988 5.10964 23.3895 5.10307 23.382 5.09472C23.3744 5.08638 23.3688 5.07646 23.3655 5.0657C23.3622 5.05493 23.3614 5.04357 23.363 5.03243L23.9309 1.43461C23.9363 1.41006 23.9499 1.38806 23.9694 1.3722C23.9889 1.35634 24.0132 1.34754 24.0384 1.34724H24.6849C24.6961 1.34674 24.7073 1.34873 24.7177 1.35306C24.7281 1.3574 24.7374 1.36397 24.745 1.37232C24.7525 1.38066 24.7581 1.39058 24.7614 1.40134C24.7647 1.41211 24.7656 1.42347 24.7639 1.43461L24.196 5.03243C24.1908 5.05714 24.1773 5.07934 24.1578 5.09538C24.1383 5.11141 24.1139 5.12033 24.0886 5.12067V5.1198Z" fill="#009EE3"/>
<path fill-rule="evenodd" clip-rule="evenodd" d="M1.10251 0H2.79658C3.27361 0 3.83975 0.0152894 4.21805 0.349472C4.47098 0.572697 4.60378 0.927849 4.57321 1.31052C4.46924 2.604 3.69559 3.32872 2.65766 3.32872H1.82242C1.68001 3.32872 1.58609 3.42308 1.5459 3.67819L1.31263 5.16345C1.29734 5.25955 1.25584 5.31634 1.18158 5.32333H0.136221C0.0204581 5.32333 -0.0206053 5.23597 0.00953669 5.04288L0.760902 0.282198C0.791044 0.0908624 0.896322 0 1.10251 0Z" fill="#113984"/>
<path fill-rule="evenodd" clip-rule="evenodd" d="M1.57043 3.52748L1.86618 1.65475C1.89195 1.4905 1.98194 1.41187 2.16104 1.41187H3.85336C4.13338 1.41187 4.3601 1.45555 4.53745 1.53636C4.36752 2.68788 3.62271 3.32741 2.64768 3.32741H1.81375C1.70192 3.32785 1.6198 3.38376 1.57043 3.52748Z" fill="#172C70"/>
</svg>
