<svg width="7" height="6" viewBox="0 0 7 6" fill="none" xmlns="http://www.w3.org/2000/svg">
<path d="M0 0V6H3.49807C5.8056 6 6.80626 4.70774 6.80626 2.99413C6.80626 1.28717 5.8056 0 3.49807 0H0Z" fill="white"/>
<path d="M0.378052 0.378418H3.49851C5.61646 0.378418 6.42827 1.53501 6.42827 2.99401C6.42827 4.74351 5.29462 5.62135 3.49851 5.62135H0.378052V0.378418ZM0.680563 0.680929V5.31903H3.49851C5.19982 5.31903 6.12548 4.52627 6.12548 2.99401C6.12548 1.41931 5.12204 0.680836 3.49851 0.680836H0.680563V0.680929Z" fill="black"/>
<path d="M1.05859 3.33508H1.96067V4.94058H1.05859V3.33508Z" fill="black"/>
<path d="M1.5096 3.08678C1.81923 3.08678 2.07023 2.83577 2.07023 2.52615C2.07023 2.21652 1.81923 1.96552 1.5096 1.96552C1.19998 1.96552 0.948975 2.21652 0.948975 2.52615C0.948975 2.83577 1.19998 3.08678 1.5096 3.08678Z" fill="black"/>
<path d="M3.85244 2.78847V3.04844H3.20968V2.00524H3.83191V2.26511H3.46956V2.3859H3.81221V2.64586H3.46956V2.78857L3.85244 2.78847ZM3.9649 3.04863L4.27943 2.00487H4.64918L4.96362 3.04863H4.69311L4.6341 2.84674H4.29414L4.23504 3.04863H3.9649ZM4.37034 2.58705H4.55845L4.47216 2.29221H4.45644L4.37034 2.58705ZM5.0943 2.00496H5.35436V2.78857H5.73927C5.63365 1.36674 4.51535 1.05951 3.4986 1.05951H2.41498V2.00551H2.57534C2.86778 2.00551 3.04932 2.2038 3.04932 2.52286C3.04932 2.8521 2.87212 3.04863 2.57534 3.04863H2.41498V4.94138H3.49869C5.15099 4.94138 5.72641 4.17396 5.74676 3.04844H5.0943V2.00496ZM2.41479 2.26539V2.78857H2.57534C2.6866 2.78857 2.78944 2.75638 2.78944 2.52277C2.78944 2.29462 2.67504 2.26539 2.57534 2.26539H2.41479Z" fill="#D50072"/>
</svg>
