<svg width="14" height="6" viewBox="0 0 14 6" fill="none" xmlns="http://www.w3.org/2000/svg">
<path d="M0 1.07615C0 0.482143 0.485294 0 1.08246 0H12.876C13.4732 0 13.9585 0.482143 13.9585 1.07615V4.92384C13.9585 5.51785 13.4748 6 12.876 6H1.08246C0.485294 6.00157 0 5.51943 0 4.92542V1.07615Z" fill="#000268"/>
<path d="M0.444336 1.11396V4.88916C0.444336 5.26101 0.746857 5.56196 1.12028 5.56196H7.29832V0.441162H1.12028C0.746857 0.441162 0.444336 0.742107 0.444336 1.11396ZM8.89601 2.98265C8.89601 3.22372 8.77784 3.38759 8.58089 3.38759C8.40757 3.38759 8.26261 3.22215 8.26261 3.00156C8.26261 2.77624 8.39023 2.60765 8.58089 2.60765C8.78257 2.60923 8.89601 2.78255 8.89601 2.98265ZM7.7395 4.36133H8.26103V3.542H8.26734C8.3666 3.72162 8.56355 3.7878 8.74475 3.7878C9.19381 3.7878 9.4333 3.41753 9.4333 2.97162C9.4333 2.60608 9.20484 2.21059 8.78729 2.21059C8.54937 2.21059 8.33036 2.30671 8.22479 2.51784H8.21849V2.24526H7.73792V4.36133H7.7395ZM10.1455 3.27414C10.1455 3.12919 10.2841 3.07404 10.4606 3.07404C10.5394 3.07404 10.6134 3.07877 10.6812 3.08192C10.6812 3.25839 10.5567 3.43801 10.3598 3.43801C10.2384 3.43958 10.1455 3.37971 10.1455 3.27414ZM11.198 3.75313C11.1744 3.63496 11.1696 3.51521 11.1696 3.39704V2.83454C11.1696 2.37446 10.8372 2.20902 10.4512 2.20902C10.229 2.20902 10.0336 2.24053 9.84927 2.31616L9.85872 2.6691C10.0037 2.58717 10.1707 2.55566 10.3393 2.55566C10.5268 2.55566 10.6812 2.6108 10.6844 2.81721C10.6182 2.80618 10.5252 2.79673 10.4417 2.79673C10.1644 2.79673 9.66334 2.85187 9.66334 3.31196C9.66334 3.63969 9.92962 3.78622 10.2274 3.78622C10.4417 3.78622 10.5867 3.70271 10.7048 3.51364H10.7111C10.7111 3.59242 10.719 3.66963 10.7222 3.75156H11.198V3.75313ZM11.4312 4.36133C11.5383 4.38496 11.6455 4.39599 11.7558 4.39599C12.2332 4.39599 12.3466 4.02729 12.4947 3.64914L13.0478 2.24526H12.5263L12.2159 3.23003H12.2111L11.8866 2.24526H11.3256L11.937 3.78937C11.8992 3.9233 11.8015 3.99736 11.6738 3.99736C11.6014 3.99736 11.5383 3.9879 11.4674 3.96584L11.4312 4.36133Z" fill="white"/>
<path d="M1.71747 2.98579C1.71747 2.77938 1.81831 2.60921 2.01368 2.60921C2.24845 2.60921 2.34614 2.79671 2.34614 2.9653C2.34614 3.19692 2.19803 3.35291 2.01368 3.35291C1.85612 3.35291 1.71747 3.22056 1.71747 2.98579ZM2.85034 2.24367H2.37765V2.51625H2.37293C2.26263 2.33033 2.08301 2.209 1.86085 2.209C1.39131 2.209 1.18018 2.54461 1.18018 2.99367C1.18018 3.43957 1.43858 3.75312 1.85139 3.75312C2.06095 3.75312 2.23427 3.67119 2.35875 3.49472H2.36505V3.57665C2.36505 3.87129 2.20276 4.0131 1.90181 4.0131C1.68438 4.0131 1.55045 3.96741 1.39131 3.88862L1.36452 4.29986C1.48585 4.34398 1.69226 4.39598 1.9412 4.39598C2.5494 4.39598 2.85034 4.19587 2.85034 3.57665V2.24367ZM3.73112 1.61499H3.20959V1.99787H3.73112V1.61499ZM3.20959 3.75312H3.73112V2.24367H3.20959V3.75312ZM5.18227 2.22633C5.13028 2.21846 5.06568 2.209 5.0058 2.209C4.78049 2.209 4.64971 2.33033 4.5599 2.52255H4.5536V2.24524H4.07933V3.75469H4.60087V3.11814C4.60087 2.82192 4.73795 2.64545 4.98059 2.64545C5.04204 2.64545 5.09877 2.64545 5.15706 2.66278L5.18227 2.22633ZM6.08038 3.42224C5.83931 3.42224 5.74162 3.22213 5.74162 2.99997C5.74162 2.77465 5.83931 2.57455 6.08038 2.57455C6.32145 2.57455 6.41914 2.77465 6.41914 2.99997C6.41914 3.22213 6.31988 3.42224 6.08038 3.42224ZM6.08038 3.78778C6.57828 3.78778 6.95801 3.49787 6.95801 2.99997C6.95801 2.49892 6.57828 2.209 6.08038 2.209C5.58248 2.209 5.20276 2.49892 5.20276 2.99997C5.20276 3.49787 5.58091 3.78778 6.08038 3.78778Z" fill="#FF0007"/>
</svg>
