<?xml version="1.0" encoding="UTF-8"?>
<svg xmlns="http://www.w3.org/2000/svg" xmlns:xlink="http://www.w3.org/1999/xlink" width="75px" height="53px" viewBox="0 0 74 53" version="1.1">
<g id="surface1">
<path style=" stroke:none;fill-rule:nonzero;fill:rgb(100%,100%,100%);fill-opacity:1;" d="M 0 0.0585938 L 74 0.0585938 L 74 52.941406 L 0 52.941406 Z M 0 0.0585938 "/>
<path style=" stroke:none;fill-rule:nonzero;fill:rgb(100%,27.843137%,52.156863%);fill-opacity:1;" d="M 46.785156 12.011719 C 45.058594 12.011719 43.46875 12.5625 42.152344 13.503906 L 35.046875 18.734375 C 34.433594 14.925781 31.167969 12.011719 27.214844 12.011719 C 22.835938 12.011719 19.273438 15.613281 19.273438 20.042969 C 19.273438 24.46875 22.835938 28.070312 27.214844 28.070312 C 28.941406 28.070312 30.554688 27.5 31.871094 26.558594 L 38.953125 21.347656 C 39.566406 25.15625 42.832031 28.070312 46.785156 28.070312 C 51.164062 28.070312 54.726562 24.46875 54.726562 20.042969 C 54.726562 15.613281 51.1875 12.011719 46.785156 12.011719 Z M 27.214844 23.644531 C 25.242188 23.644531 23.652344 22.039062 23.652344 20.042969 C 23.652344 18.046875 25.242188 16.4375 27.214844 16.4375 C 29.191406 16.4375 30.78125 18.046875 30.78125 20.042969 C 30.78125 22.039062 29.191406 23.644531 27.214844 23.644531 Z M 46.785156 23.644531 C 44.808594 23.644531 43.21875 22.039062 43.21875 20.042969 C 43.21875 18.046875 44.808594 16.4375 46.785156 16.4375 C 48.757812 16.4375 50.347656 18.046875 50.347656 20.042969 C 50.347656 22.039062 48.757812 23.644531 46.785156 23.644531 Z M 46.785156 23.644531 "/>
<path style=" stroke:none;fill-rule:nonzero;fill:rgb(100%,27.843137%,52.156863%);fill-opacity:1;" d="M 53.230469 32.957031 L 55.070312 32.957031 L 55.070312 39.476562 L 53.230469 39.476562 Z M 54.136719 30.066406 C 53.546875 30.066406 53.070312 30.550781 53.070312 31.167969 C 53.070312 31.765625 53.546875 32.269531 54.136719 32.269531 C 54.726562 32.269531 55.203125 31.789062 55.203125 31.167969 C 55.226562 30.550781 54.726562 30.066406 54.136719 30.066406 Z M 62.308594 32.957031 L 62.308594 40.964844 L 60.472656 40.964844 L 60.472656 39.175781 C 60.039062 39.382812 59.585938 39.496094 59.085938 39.496094 C 57.316406 39.496094 55.863281 38.027344 55.863281 36.214844 C 55.863281 34.402344 57.292969 32.9375 59.085938 32.9375 C 59.585938 32.9375 60.0625 33.050781 60.472656 33.257812 L 60.472656 32.980469 L 62.308594 32.980469 Z M 60.472656 36.214844 C 60.472656 35.4375 59.859375 34.816406 59.109375 34.816406 C 58.359375 34.816406 57.746094 35.4375 57.746094 36.214844 C 57.746094 36.996094 58.359375 37.617188 59.109375 37.617188 C 59.859375 37.617188 60.472656 36.972656 60.472656 36.214844 Z M 35.617188 34.792969 C 36.070312 34.792969 36.5 35.023438 36.75 35.4375 L 38.292969 34.402344 C 37.703125 33.488281 36.703125 32.914062 35.617188 32.914062 C 33.84375 32.914062 32.390625 34.382812 32.390625 36.195312 C 32.390625 38.007812 33.820312 39.476562 35.617188 39.476562 C 36.683594 39.476562 37.679688 38.925781 38.292969 38.007812 L 36.773438 36.996094 C 36.523438 37.386719 36.09375 37.617188 35.636719 37.617188 C 34.890625 37.617188 34.277344 36.996094 34.277344 36.214844 C 34.253906 35.4375 34.867188 34.792969 35.617188 34.792969 Z M 18.136719 36.214844 C 18.136719 38.027344 16.707031 39.496094 14.914062 39.496094 C 14.414062 39.496094 13.9375 39.382812 13.507812 39.152344 L 13.507812 40.964844 L 11.667969 40.964844 L 11.667969 32.957031 L 13.507812 32.957031 L 13.507812 33.257812 C 13.9375 33.050781 14.414062 32.914062 14.914062 32.914062 C 16.707031 32.914062 18.136719 34.402344 18.136719 36.214844 Z M 16.296875 36.214844 C 16.296875 35.4375 15.683594 34.816406 14.9375 34.816406 C 14.1875 34.816406 13.574219 35.4375 13.574219 36.214844 C 13.574219 36.996094 14.1875 37.617188 14.9375 37.617188 C 15.683594 37.617188 16.296875 36.972656 16.296875 36.214844 Z M 25.128906 39.476562 L 23.289062 39.476562 L 23.289062 39.175781 C 22.882812 39.382812 22.402344 39.496094 21.925781 39.496094 C 20.15625 39.496094 18.703125 38.027344 18.703125 36.214844 C 18.703125 34.402344 20.132812 32.9375 21.925781 32.9375 C 22.402344 32.9375 22.882812 33.050781 23.289062 33.257812 L 23.289062 32.980469 L 25.128906 32.980469 Z M 23.289062 36.03125 C 23.222656 35.34375 22.632812 34.792969 21.925781 34.792969 C 21.179688 34.792969 20.566406 35.414062 20.566406 36.195312 C 20.566406 36.972656 21.179688 37.59375 21.925781 37.59375 C 22.632812 37.59375 23.199219 37.042969 23.289062 36.355469 Z M 49.074219 32.980469 C 48.691406 32.980469 48.28125 33.074219 47.894531 33.210938 L 47.894531 32.957031 L 46.058594 32.957031 L 46.058594 39.476562 L 47.894531 39.476562 L 47.894531 36.054688 C 47.894531 34.910156 48.941406 34.863281 49.074219 34.863281 C 49.394531 34.863281 49.667969 34.953125 49.871094 35.160156 C 50.097656 35.367188 50.210938 35.6875 50.210938 36.101562 L 50.210938 39.429688 L 52.050781 39.429688 L 52.050781 36.078125 C 52.050781 34.035156 50.550781 32.980469 49.074219 32.980469 Z M 32.414062 32.980469 L 30.554688 32.980469 L 29.238281 36.421875 L 27.808594 32.980469 L 25.808594 32.980469 L 28.351562 38.71875 L 27.464844 40.988281 L 29.328125 40.988281 Z M 45.261719 36.214844 C 45.261719 38.027344 43.832031 39.496094 42.039062 39.496094 C 40.269531 39.496094 38.816406 38.027344 38.816406 36.214844 C 38.816406 34.402344 40.246094 32.9375 42.039062 32.9375 C 43.808594 32.914062 45.261719 34.402344 45.261719 36.214844 Z M 43.425781 36.214844 C 43.425781 35.4375 42.8125 34.816406 42.0625 34.816406 C 41.3125 34.816406 40.699219 35.4375 40.699219 36.214844 C 40.699219 36.996094 41.3125 37.617188 42.0625 37.617188 C 42.8125 37.617188 43.425781 36.972656 43.425781 36.214844 Z M 43.425781 36.214844 "/>
</g>
</svg>
