<svg width="18" height="6" viewBox="0 0 18 6" fill="none" xmlns="http://www.w3.org/2000/svg">
<path d="M0 5.215L0.44377 2.71985H1.58496C1.86523 2.71985 2.04811 2.77357 2.1315 2.88334C2.21488 2.99312 2.22983 3.19445 2.17634 3.49247C2.12566 3.77695 2.0376 3.97221 1.91265 4.07638C1.78769 4.18055 1.57748 4.2303 1.2846 4.2303L1.17459 4.23194H0.452879L0.278641 5.215H0ZM0.497489 3.99393H1.16478C1.44342 3.99393 1.62817 3.96567 1.71599 3.90752C1.80381 3.84936 1.8678 3.71833 1.90284 3.51279C1.94581 3.27152 1.94581 3.11971 1.90424 3.05548C1.86266 2.99125 1.74191 2.96018 1.54385 2.96018L1.43641 2.95878H0.680836L0.497489 3.99393Z" fill="#CE4749"/>
<path d="M2.42904 3.46772H2.68596L2.62476 3.66882L2.6292 3.67466C2.76046 3.51117 2.94054 3.42755 3.17457 3.42755C3.49626 3.42755 3.62784 3.59338 3.56929 3.92504L3.54593 4.04556H3.29182L3.30536 4.00235C3.31728 3.95564 3.32475 3.92504 3.32755 3.90892C3.35885 3.73002 3.2785 3.64079 3.08348 3.64079C2.79877 3.64079 2.62453 3.81643 2.56193 4.16958L2.37508 5.21664H2.11816L2.42904 3.46772Z" fill="#CE4749"/>
<path d="M3.79095 3.46771H5.05102L5.00641 3.71646L3.73699 5.00339H4.77962L4.74131 5.215H3.39319L3.4364 4.97209L4.71142 3.67932H3.75381L3.79095 3.46771Z" fill="#CE4749"/>
<path d="M6.30969 4.68621H6.57198L6.56288 4.75021C6.53018 4.93192 6.45287 5.05851 6.32931 5.13161C6.20576 5.20472 6.00606 5.24022 5.72906 5.24022C5.40744 5.24022 5.20634 5.18206 5.1274 5.06458C5.04845 4.9471 5.04098 4.69952 5.10801 4.32279C5.17037 3.97408 5.26146 3.74028 5.38502 3.6221C5.50857 3.50391 5.71574 3.44342 6.0105 3.44342C6.33235 3.44342 6.53345 3.49551 6.61543 3.59827C6.69741 3.70104 6.70768 3.91989 6.64953 4.25225L6.62617 4.38912H5.36843C5.31915 4.66472 5.31775 4.84059 5.364 4.9151C5.41024 4.98961 5.54104 5.02815 5.75708 5.02815C5.96262 5.02815 6.09964 5.01032 6.16815 4.97466C6.23667 4.939 6.28135 4.86154 6.30222 4.74226L6.30969 4.68621ZM6.39775 4.19012L6.41106 4.10814C6.44539 3.91895 6.43442 3.7968 6.3828 3.74028C6.33118 3.68376 6.20109 3.6555 5.99555 3.6555C5.79002 3.6555 5.64848 3.68819 5.57514 3.75523C5.5018 3.82226 5.44551 3.9666 5.40534 4.19152H6.39891L6.39775 4.19012Z" fill="#CE4749"/>
<path d="M7.47754 2.71985L7.03377 5.215H6.77686L7.22063 2.71985H7.47754Z" fill="#CE4749"/>
<path d="M8.69152 4.68621H8.95358L8.9447 4.75021C8.912 4.93192 8.83446 5.05851 8.71114 5.13161C8.58782 5.20472 8.38789 5.24022 8.11088 5.24022C7.78903 5.24022 7.58793 5.18206 7.50899 5.06458C7.43004 4.9471 7.42257 4.69952 7.4896 4.32279C7.5522 3.97408 7.64305 3.74028 7.76684 3.6221C7.89063 3.50391 8.09733 3.44342 8.39232 3.44342C8.71417 3.44342 8.91527 3.49551 8.99702 3.59827C9.07877 3.70104 9.09044 3.91989 9.03135 4.25225L9.008 4.38912H7.75003C7.70098 4.66472 7.69958 4.84059 7.74559 4.9151C7.7916 4.98961 7.92286 5.02815 8.13891 5.02815C8.34444 5.02815 8.48147 5.01032 8.54998 4.97466C8.61849 4.939 8.66318 4.86154 8.68404 4.74226L8.69152 4.68621ZM8.77934 4.19012L8.79288 4.10814C8.82698 3.91895 8.81624 3.7968 8.76462 3.74028C8.71301 3.68376 8.58268 3.6555 8.37714 3.6555C8.17161 3.6555 8.03007 3.68819 7.95673 3.75523C7.88339 3.82226 7.8271 3.9666 7.7867 4.19152H8.78027L8.77934 4.19012Z" fill="#CE4749"/>
<path d="M11.7094 3.46771L10.9095 5.21499H10.5297L10.4685 4.24384L10.4494 3.94721L10.4433 3.7996L10.4344 3.65222H10.4284L10.3674 3.7996L10.3062 3.94721L10.1833 4.24384L9.77507 5.21499H9.38713L9.22363 3.46771H9.49176L9.56627 4.43443L9.58963 4.73806L9.5985 4.88987L9.60738 5.04192H9.61485L9.67604 4.88987L9.74004 4.73806L9.86663 4.43443L10.2777 3.46631H10.6505L10.7161 4.43746L10.7355 4.73993L10.743 4.89034L10.7504 5.04216H10.7563L10.8219 4.89034L10.8859 4.73829L11.0169 4.43466L11.4341 3.46794H11.7097L11.7094 3.46771Z" fill="#CE4749"/>
<path d="M12.9981 3.46771L12.6629 4.24665L12.4957 4.63413L12.4153 4.82915L12.3333 5.02277H12.3259L12.2932 4.82915L12.2621 4.63413L12.1951 4.24665L12.064 3.46771H11.7915L12.1418 5.36681L12.1016 5.45323C11.9942 5.68422 11.8706 5.79587 11.7352 5.78839C11.7055 5.78617 11.6761 5.78172 11.6471 5.77508L11.61 5.98646C11.6497 5.99461 11.6902 5.99914 11.7307 6C11.8886 6 12.018 5.95072 12.1194 5.85403C12.2208 5.75733 12.331 5.57702 12.4464 5.31683L13.2702 3.46841L12.9981 3.46771Z" fill="#CE4749"/>
<path d="M14.909 4.99308L14.8672 5.22828H13.1127L13.1944 4.76116C13.2411 4.5005 13.3211 4.32969 13.4343 4.24872C13.549 4.16837 13.7963 4.10578 14.1791 4.06187C14.4843 4.02746 14.6735 3.98129 14.7467 3.92336C14.8195 3.86521 14.8777 3.71479 14.9195 3.47189C14.9567 3.25888 14.9461 3.12038 14.8882 3.05778C14.8303 2.99519 14.6827 2.96249 14.4487 2.96249C14.1553 2.96249 13.9661 2.98795 13.8811 3.04003C13.7961 3.09211 13.7351 3.21427 13.701 3.41093L13.6728 3.59684H13.403L13.4263 3.46862C13.4784 3.17223 13.5754 2.97557 13.7153 2.87724C13.8552 2.77891 14.1123 2.72986 14.4811 2.72986C14.8081 2.72986 15.0202 2.78358 15.1155 2.88915C15.2108 2.99472 15.2302 3.20352 15.175 3.51043C15.1229 3.80627 15.0355 4.00441 14.913 4.10484C14.7904 4.20528 14.5496 4.27278 14.1906 4.30734C13.8762 4.33864 13.6842 4.38185 13.6141 4.43837C13.5441 4.49489 13.4875 4.65138 13.4413 4.91204L13.4263 4.99542H14.9085L14.909 4.99308Z" fill="#AFB2BA"/>
<path d="M17.2191 2.75415L16.9258 4.42249H17.2892L17.2476 4.65792H16.8842L16.7829 5.22828H16.5072L16.6086 4.65792H15.2441L15.3023 4.33093L16.7931 2.75415H17.2191ZM16.6502 4.42249L16.9125 2.93446H16.9064L15.5123 4.42249H16.6502Z" fill="#AFB2BA"/>
<path d="M5.79453 1.96329C6.33522 1.64787 6.90726 1.38956 7.50141 1.19253L7.39117 0.575928C6.63025 0.813978 5.89481 1.12693 5.19568 1.51018L5.79453 1.96329Z" fill="#AFB2BA"/>
<path d="M12.5673 1.62817L14.6766 0.478103C13.8022 0.204134 12.6925 0.00747401 11.2968 0H11.2834L10.8009 0.965316C11.4213 1.09073 12.0176 1.3145 12.5673 1.62817Z" fill="#AFB2BA"/>
<path d="M4.65931 1.82623C3.73277 2.40267 3.24719 2.89128 3.24719 2.89128H4.42108C4.70696 2.6694 4.9884 2.4697 5.26401 2.28939L4.65931 1.82623Z" fill="#AFB2BA"/>
<path d="M10.6012 0.0133057C9.67383 0.0557693 8.75385 0.199167 7.85754 0.440959L7.93789 1.06644C8.82263 0.837082 9.61954 0.805785 10.3137 0.887765L10.6012 0.0133057Z" fill="#AFB2BA"/>
<path d="M15.7998 0.924927L13.0671 1.9484C13.2032 2.04427 13.3323 2.1498 13.4532 2.26418H17.5172C17.5172 2.26418 17.0569 1.55064 15.7998 0.924927Z" fill="#AFB2BA"/>
</svg>
