<?xml version="1.0" encoding="UTF-8"?>
<svg xmlns="http://www.w3.org/2000/svg" xmlns:xlink="http://www.w3.org/1999/xlink" width="24px" height="9px" viewBox="0 0 23 9" version="1.1">
<defs>
<radialGradient id="radial0" gradientUnits="userSpaceOnUse" cx="0.22357" cy="0.08811" fx="0.22357" fy="0.08811" r="1.13202" gradientTransform="matrix(2.640408,0,0,2.811051,3.508898,3.145329)">
<stop offset="0" style="stop-color:rgb(100%,80%,0%);stop-opacity:1;"/>
<stop offset="0.09157" style="stop-color:rgb(100%,78.431373%,0%);stop-opacity:1;"/>
<stop offset="0.1739" style="stop-color:rgb(100%,74.117647%,0%);stop-opacity:1;"/>
<stop offset="0.2528" style="stop-color:rgb(100%,67.058824%,0%);stop-opacity:1;"/>
<stop offset="0.3295" style="stop-color:rgb(100%,56.862745%,0%);stop-opacity:1;"/>
<stop offset="0.4046" style="stop-color:rgb(100%,43.921569%,0%);stop-opacity:1;"/>
<stop offset="0.4786" style="stop-color:rgb(100%,27.843137%,0%);stop-opacity:1;"/>
<stop offset="0.5503" style="stop-color:rgb(100%,9.411765%,0%);stop-opacity:1;"/>
<stop offset="0.5822" style="stop-color:rgb(100%,0%,0%);stop-opacity:1;"/>
<stop offset="1" style="stop-color:rgb(100%,0%,0%);stop-opacity:1;"/>
</radialGradient>
<radialGradient id="radial1" gradientUnits="userSpaceOnUse" cx="0.02552" cy="0.14432" fx="0.02552" fy="0.14432" r="1.39457" gradientTransform="matrix(1.941623,0,0,2.090264,2.206163,3.270064)">
<stop offset="0" style="stop-color:rgb(0%,70.588235%,90.196078%);stop-opacity:1;"/>
<stop offset="0.201" style="stop-color:rgb(0%,69.019608%,89.019608%);stop-opacity:1;"/>
<stop offset="0.3898" style="stop-color:rgb(0.392157%,64.705882%,85.882353%);stop-opacity:1;"/>
<stop offset="0.5737" style="stop-color:rgb(0.784314%,57.254902%,80.392157%);stop-opacity:1;"/>
<stop offset="0.7546" style="stop-color:rgb(1.176471%,46.666667%,72.941176%);stop-opacity:1;"/>
<stop offset="0.9316" style="stop-color:rgb(1.568627%,33.333333%,63.137255%);stop-opacity:1;"/>
<stop offset="1" style="stop-color:rgb(1.960784%,27.45098%,58.823529%);stop-opacity:1;"/>
</radialGradient>
</defs>
<g id="surface1">
<path style=" stroke:none;fill-rule:nonzero;fill:rgb(0%,0%,0%);fill-opacity:1;" d="M 22.683594 9 L 0.320312 9 C 0.140625 9 0 8.855469 0 8.667969 L 0 0.332031 C 0 0.144531 0.140625 0 0.320312 0 L 22.679688 0 C 22.859375 0 23 0.144531 23 0.332031 L 23 8.667969 C 23.003906 8.855469 22.859375 9 22.683594 9 Z M 22.683594 9 "/>
<path style=" stroke:none;fill-rule:nonzero;fill:rgb(100%,100%,100%);fill-opacity:1;" d="M 7.21875 6.113281 C 7.21875 6.199219 7.15625 6.308594 7.082031 6.347656 L 4.492188 7.878906 C 4.421875 7.925781 4.296875 7.925781 4.226562 7.878906 L 1.636719 6.347656 C 1.5625 6.304688 1.503906 6.199219 1.503906 6.113281 L 1.503906 3.042969 C 1.503906 2.957031 1.5625 2.847656 1.636719 2.808594 L 4.226562 1.277344 C 4.296875 1.230469 4.421875 1.230469 4.492188 1.277344 L 7.082031 2.808594 C 7.15625 2.851562 7.21875 2.957031 7.21875 3.042969 Z M 7.21875 6.113281 "/>
<path style=" stroke:none;fill-rule:nonzero;fill:rgb(100%,100%,100%);fill-opacity:1;" d="M 21.472656 3.210938 L 19.148438 3.210938 L 19.148438 3.765625 L 19.976562 3.765625 L 19.976562 6.171875 L 20.632812 6.171875 L 20.632812 3.765625 L 21.472656 3.765625 Z M 21.472656 3.210938 "/>
<path style=" stroke:none;fill-rule:nonzero;fill:rgb(100%,100%,100%);fill-opacity:1;" d="M 10.90625 3.210938 L 8.574219 3.210938 L 8.574219 3.765625 L 9.414062 3.765625 L 9.414062 6.171875 L 10.074219 6.171875 L 10.074219 3.765625 L 10.90625 3.765625 Z M 10.90625 3.210938 "/>
<path style=" stroke:none;fill-rule:nonzero;fill:rgb(100%,100%,100%);fill-opacity:1;" d="M 17.640625 3.113281 C 16.90625 3.113281 16.5 3.589844 16.5 4.269531 L 16.5 6.171875 L 17.148438 6.171875 L 17.148438 4.253906 C 17.148438 3.957031 17.324219 3.726562 17.644531 3.726562 C 17.964844 3.726562 18.136719 3.996094 18.136719 4.253906 L 18.136719 6.171875 L 18.792969 6.171875 L 18.792969 4.269531 C 18.792969 3.589844 18.367188 3.113281 17.640625 3.113281 Z M 17.640625 3.113281 "/>
<path style=" stroke:none;fill-rule:nonzero;fill:rgb(100%,100%,100%);fill-opacity:1;" d="M 15.179688 3.210938 L 15.179688 6.171875 L 15.832031 6.171875 L 15.832031 3.210938 Z M 15.179688 3.210938 "/>
<path style=" stroke:none;fill-rule:nonzero;fill:rgb(100%,100%,100%);fill-opacity:1;" d="M 12.972656 4.382812 L 12.996094 4.515625 L 13.605469 6.171875 L 13.871094 6.171875 L 14.703125 3.210938 L 14.066406 3.210938 L 13.660156 4.765625 L 13.640625 4.933594 L 13.613281 4.765625 L 13.078125 3.210938 L 12.867188 3.210938 L 12.339844 4.765625 L 12.304688 4.933594 L 12.285156 4.765625 L 11.882812 3.210938 L 11.246094 3.210938 L 12.074219 6.171875 L 12.34375 6.171875 L 12.953125 4.515625 Z M 12.972656 4.382812 "/>
<path style=" stroke:none;fill-rule:nonzero;fill:url(#radial0);" d="M 5.558594 4.519531 L 4.894531 5.5 L 4.558594 4.972656 L 4.953125 4.382812 C 5.019531 4.277344 5.179688 3.992188 4.996094 3.597656 C 4.851562 3.28125 4.53125 3.125 4.253906 3.125 C 3.972656 3.125 3.667969 3.265625 3.507812 3.597656 C 3.324219 3.972656 3.484375 4.273438 3.554688 4.375 C 3.554688 4.375 3.773438 4.695312 3.953125 4.96875 L 4.253906 5.394531 L 4.695312 6.078125 C 4.703125 6.082031 4.777344 6.1875 4.894531 6.1875 C 5.015625 6.1875 5.089844 6.082031 5.101562 6.066406 L 6.148438 4.519531 Z M 4.253906 4.546875 C 4.253906 4.546875 4.078125 4.277344 3.96875 4.09375 C 3.84375 3.898438 3.984375 3.601562 4.253906 3.601562 C 4.527344 3.601562 4.660156 3.898438 4.542969 4.09375 C 4.425781 4.277344 4.253906 4.546875 4.253906 4.546875 Z M 4.253906 4.546875 "/>
<path style=" stroke:none;fill-rule:nonzero;fill:url(#radial1);" d="M 3.609375 5.46875 L 2.949219 4.550781 C 2.949219 4.550781 2.773438 4.277344 2.664062 4.097656 C 2.539062 3.898438 2.679688 3.605469 2.949219 3.605469 C 2.988281 3.605469 3.019531 3.609375 3.050781 3.617188 L 3.277344 3.195312 C 3.167969 3.148438 3.058594 3.128906 2.949219 3.128906 C 2.675781 3.128906 2.367188 3.269531 2.207031 3.601562 C 2.027344 3.976562 2.1875 4.277344 2.25 4.375 L 3.398438 6.078125 C 3.402344 6.09375 3.480469 6.199219 3.597656 6.199219 C 3.722656 6.199219 3.792969 6.097656 3.804688 6.082031 L 4.148438 5.554688 L 3.851562 5.117188 Z M 3.609375 5.46875 "/>
</g>
</svg>
