<svg width="10" height="6" viewBox="0 0 10 6" fill="none" xmlns="http://www.w3.org/2000/svg">
<g clip-path="url(#clip0_2_519)">
<path d="M7.66493 3.00126H6.88702C6.80072 3.00126 6.72966 2.93273 6.72966 2.84644C6.72966 2.76014 6.80072 2.684 6.88702 2.684H8.07103V2.10025H6.88702C6.47458 2.10025 6.13828 2.43654 6.13828 2.84898C6.13828 3.26141 6.47458 3.59771 6.88702 3.59771H7.65351C7.73981 3.59771 7.81087 3.66624 7.81087 3.75253C7.81087 3.83882 7.74108 3.90228 7.65351 3.90228H6.01011C5.87052 4.16877 5.73473 4.3972 5.45935 4.51141H7.66493C8.07103 4.50507 8.40351 4.16243 8.40351 3.7538C8.40351 3.34517 8.07103 3.00761 7.66493 3.00126Z" fill="#676A6A"/>
<path d="M4.6853 2.10026C4.02667 2.10026 3.48987 2.6396 3.48987 3.30331C3.48987 3.31092 3.48987 3.32869 3.48987 3.32869V5.80585H4.08631V4.51143H4.68403C5.34266 4.51143 5.87692 3.96448 5.87692 3.30077C5.87692 2.63833 5.34393 2.10026 4.6853 2.10026ZM4.6853 3.90229H4.08631V3.30077C4.08631 2.96448 4.35408 2.69163 4.6853 2.69163C5.01652 2.69163 5.28682 2.96448 5.28682 3.30077C5.28682 3.63707 5.01652 3.90229 4.6853 3.90229Z" fill="#676A6A"/>
<path d="M1.60148 4.51144C1.03803 4.51144 0.563408 4.10916 0.435236 3.58504C0.435236 3.58504 0.398434 3.41119 0.398434 3.29697C0.398434 3.18276 0.433967 3.00763 0.433967 3.00763C0.563409 2.48352 1.03676 2.09393 1.60021 2.09393C2.26265 2.09393 2.80579 2.632 2.80579 3.29444V3.58504H1.04691C1.15097 3.78809 1.36036 3.9023 1.60275 3.9023H3.18397L3.18651 2.1853C3.18651 1.92895 2.97711 1.71956 2.72077 1.71956H0.479652C0.223307 1.71956 0.013916 1.92261 0.013916 2.17895V4.42007C0.013916 4.67641 0.223307 4.89215 0.479652 4.89215H2.72077C2.95046 4.89215 3.14209 4.72718 3.17889 4.51144H1.60148Z" fill="#B40F6B"/>
<path d="M1.59893 2.66372C1.35781 2.66372 1.14715 2.81093 1.04309 3.00128H2.15477C2.05071 2.81093 1.84005 2.66372 1.59893 2.66372Z" fill="#B40F6B"/>
<path d="M2.6142 0.991151C2.6142 0.444197 2.15988 3.45707e-05 1.59897 3.45707e-05C1.04694 3.45707e-05 0.598969 0.428969 0.58374 0.963233C0.58374 0.965771 0.58374 0.968309 0.58374 0.969578V1.2678C0.58374 1.30333 0.612928 1.33887 0.64973 1.33887H1.02283C1.05963 1.33887 1.09135 1.30333 1.09135 1.2678V0.989882C1.09135 0.71704 1.31851 0.494958 1.59897 0.494958C1.87943 0.494958 2.10658 0.71704 2.10658 0.989882V1.2678C2.10658 1.30333 2.13577 1.33887 2.17257 1.33887H2.54567C2.58247 1.33887 2.61293 1.30333 2.61293 1.2678V0.991151H2.6142Z" fill="#B40F6B"/>
<path d="M5.35407 5.28553L5.2995 5.59137C5.27285 5.74619 5.17133 5.81726 5.03427 5.81726C4.91752 5.81726 4.82742 5.74112 4.85407 5.59264L4.90864 5.28553H4.9924L4.93783 5.59137C4.92133 5.68655 4.96448 5.74112 5.0457 5.74112C5.12945 5.74112 5.20052 5.69163 5.21702 5.59137L5.27158 5.28553H5.35407ZM5.02793 5.19036C5.02793 5.21574 5.04696 5.22843 5.06854 5.22843C5.09519 5.22843 5.12311 5.20939 5.12311 5.17386C5.12311 5.14975 5.10661 5.13579 5.08504 5.13579C5.05712 5.13579 5.02793 5.15356 5.02793 5.19036ZM5.20686 5.18909C5.20686 5.21574 5.22717 5.22716 5.24874 5.22716C5.27158 5.22716 5.30331 5.20812 5.30331 5.17386C5.30331 5.14975 5.28554 5.13579 5.26524 5.13579C5.23859 5.13579 5.20686 5.15356 5.20686 5.18909Z" fill="#676A6A"/>
<path d="M5.55587 5.28553L5.5178 5.49746C5.54952 5.45432 5.61424 5.43147 5.65993 5.43147C5.75257 5.43147 5.81729 5.48604 5.81729 5.58757C5.81729 5.73097 5.71703 5.81726 5.59013 5.81726C5.54064 5.81726 5.49876 5.79949 5.47338 5.75254L5.45942 5.80711H5.38708L5.47972 5.2868H5.55587V5.28553ZM5.49749 5.64213C5.49495 5.70305 5.53429 5.74366 5.5914 5.74366C5.66373 5.74366 5.7348 5.68782 5.73861 5.60152C5.74115 5.53934 5.70054 5.50254 5.6447 5.50254C5.57363 5.50254 5.5013 5.56092 5.49749 5.64213Z" fill="#676A6A"/>
<path d="M5.96955 5.65356C5.96701 5.70432 6.00635 5.74619 6.07361 5.74619C6.11168 5.74619 6.16117 5.73097 6.18782 5.70559L6.2297 5.75381C6.18402 5.79569 6.11676 5.81726 6.05965 5.81726C5.95305 5.81726 5.89087 5.75381 5.89087 5.65609C5.89087 5.52665 5.99239 5.4302 6.1231 5.4302C6.24239 5.4302 6.30965 5.50254 6.26904 5.65482H5.96955V5.65356ZM6.20686 5.5901C6.2132 5.52665 6.17513 5.50127 6.11295 5.50127C6.05711 5.50127 6.00508 5.52665 5.98224 5.5901H6.20686Z" fill="#676A6A"/>
<path d="M6.47585 5.43783L6.47204 5.48732C6.50758 5.44036 6.55199 5.43021 6.59133 5.43021C6.62686 5.43021 6.65986 5.4429 6.67636 5.46194L6.6294 5.5292C6.61291 5.51397 6.59641 5.50635 6.56849 5.50635C6.51519 5.50635 6.46316 5.53808 6.45047 5.60661L6.41494 5.80585H6.33752L6.40225 5.43783H6.47585Z" fill="#676A6A"/>
<path d="M7.0495 5.43783L7.08884 5.72844L7.22971 5.43783H7.316L7.12184 5.80585H7.03047L6.99367 5.56346L6.93402 5.68402L6.8693 5.80585H6.7792L6.71448 5.43783H6.80204L6.84011 5.72844L6.98224 5.43783H7.0495Z" fill="#676A6A"/>
<path d="M7.41498 5.65356C7.41245 5.70432 7.45179 5.74619 7.51904 5.74619C7.55712 5.74619 7.60661 5.73097 7.63326 5.70559L7.67514 5.75381C7.62945 5.79569 7.56219 5.81726 7.50509 5.81726C7.39849 5.81726 7.3363 5.75381 7.3363 5.65609C7.3363 5.52665 7.43783 5.4302 7.56854 5.4302C7.68783 5.4302 7.75509 5.50254 7.71448 5.65482H7.41498V5.65356ZM7.65102 5.5901C7.65737 5.52665 7.6193 5.50127 7.55712 5.50127C7.50128 5.50127 7.44925 5.52665 7.42641 5.5901H7.65102Z" fill="#676A6A"/>
<path d="M7.92643 5.43783L7.86171 5.80585H7.7843L7.84902 5.43783H7.92643ZM7.85791 5.33757C7.85791 5.36422 7.87694 5.37691 7.89851 5.37691C7.92897 5.37691 7.95689 5.35788 7.95689 5.32108C7.95689 5.29569 7.93786 5.28174 7.91755 5.28174C7.88963 5.28174 7.85791 5.2995 7.85791 5.33757Z" fill="#676A6A"/>
<path d="M8.26909 5.52921C8.24498 5.50257 8.21453 5.49495 8.17772 5.49495C8.12696 5.49495 8.09016 5.51272 8.09016 5.54444C8.09016 5.57109 8.11935 5.58251 8.1625 5.58632C8.22975 5.59267 8.31605 5.61424 8.29828 5.71069C8.28559 5.77922 8.21706 5.81982 8.12062 5.81982C8.06097 5.81982 8.0026 5.80586 7.96326 5.7513L8.01402 5.69673C8.04194 5.7348 8.09016 5.7513 8.13458 5.7513C8.17138 5.7513 8.21453 5.73734 8.22214 5.70307C8.22849 5.67008 8.1993 5.65739 8.146 5.65231C8.08255 5.64597 8.01402 5.62312 8.01402 5.55333C8.01402 5.46069 8.11427 5.42896 8.18915 5.42896C8.24625 5.42896 8.28813 5.44165 8.32239 5.47845L8.26909 5.52921Z" fill="#676A6A"/>
<path d="M8.51266 5.43784L8.47712 5.63581C8.4657 5.69926 8.49489 5.74241 8.55834 5.74241C8.61926 5.74241 8.67129 5.69165 8.68144 5.63074L8.7157 5.43784H8.79311L8.72839 5.80586H8.6586L8.66367 5.75256C8.62053 5.79444 8.57738 5.81348 8.52535 5.81348C8.43398 5.81348 8.38068 5.74876 8.39971 5.63708L8.43525 5.43911H8.51266V5.43784Z" fill="#676A6A"/>
<path d="M9.13329 5.80585L9.16882 5.60915C9.18024 5.54569 9.15867 5.50255 9.0876 5.50255C9.02669 5.50255 8.97466 5.55204 8.96324 5.61295L8.92897 5.80585H8.85156L8.91628 5.43783H8.98735L8.98227 5.49113C9.02542 5.45179 9.06984 5.43148 9.11679 5.43148C9.20689 5.43148 9.26527 5.49366 9.24496 5.60788L9.20943 5.80585H9.13329Z" fill="#676A6A"/>
<path d="M9.39465 5.8566C9.38957 5.90736 9.42891 5.92767 9.49363 5.92767C9.55074 5.92767 9.61165 5.89594 9.62688 5.81472L9.6383 5.75127C9.60404 5.79822 9.54312 5.81726 9.49744 5.81726C9.40226 5.81726 9.33627 5.76142 9.33627 5.65863C9.33627 5.51269 9.44414 5.42893 9.56597 5.42893C9.618 5.42893 9.66368 5.45305 9.68018 5.49492L9.69287 5.43655H9.76774L9.70302 5.81599C9.67891 5.95685 9.57485 6 9.47967 6C9.36546 6 9.30201 5.94543 9.3185 5.8566H9.39465ZM9.41622 5.64467C9.41622 5.70812 9.4581 5.74619 9.51647 5.74619C9.67637 5.74619 9.71952 5.50127 9.55962 5.50127C9.48348 5.5 9.41622 5.55711 9.41622 5.64467Z" fill="#676A6A"/>
</g>
<defs>
<clipPath id="clip0_2_519">
<rect width="9.77157" height="6" fill="white" transform="matrix(1 0 0 -1 0 6)"/>
</clipPath>
</defs>
</svg>
