<svg width="12" height="6" viewBox="0 0 12 6" fill="none" xmlns="http://www.w3.org/2000/svg">
<path d="M0.893201 0.0048294C0.872892 0.00713729 0.83135 0.014061 0.800885 0.0202C0.770421 0.026339 0.719509 0.0399094 0.687799 0.0502949C0.656042 0.0607266 0.601022 0.0834363 0.56548 0.100745C0.529939 0.118101 0.479027 0.146673 0.452393 0.164305C0.425714 0.181937 0.390403 0.20737 0.373925 0.220894C0.357401 0.234373 0.326567 0.262252 0.305334 0.282838C0.284102 0.303425 0.251007 0.338966 0.231805 0.361814C0.212603 0.384663 0.182462 0.425143 0.16483 0.451822C0.147244 0.478455 0.118672 0.529368 0.101317 0.564909C0.0840074 0.600451 0.0612977 0.655471 0.050866 0.687228C0.0404805 0.718938 0.02691 0.76985 0.0208172 0.800314C0.0146782 0.830779 0.00752373 0.87749 0.00484658 0.90417C0.00152321 0.937265 0 1.60171 0 2.99974C0 4.39777 0.00152321 5.06221 0.00484658 5.0953C0.00752373 5.12194 0.0147705 5.1692 0.0210018 5.20031C0.0272332 5.23142 0.0407574 5.28229 0.0510506 5.3134C0.0613438 5.34451 0.083315 5.39796 0.0998857 5.43226C0.116456 5.46651 0.143597 5.51534 0.160168 5.54073C0.176739 5.56612 0.205449 5.60558 0.223912 5.62843C0.242375 5.65128 0.281102 5.69282 0.30995 5.72079C0.338799 5.74872 0.384172 5.7874 0.410851 5.80674C0.437484 5.82608 0.479027 5.85326 0.503167 5.86711C0.527261 5.88096 0.565711 5.90076 0.588559 5.91105C0.611407 5.92135 0.650872 5.93699 0.676259 5.94581C0.701646 5.95463 0.745265 5.96723 0.773191 5.97383C0.801116 5.98043 0.848382 5.98906 0.8782 5.99294C0.926619 5.99926 1.43593 6 5.61746 6C9.8777 6 10.3076 5.99935 10.359 5.99266C10.3901 5.9886 10.4426 5.97849 10.4756 5.97014C10.5086 5.96183 10.5564 5.94724 10.5817 5.93773C10.6071 5.92822 10.6497 5.90958 10.6764 5.89624C10.703 5.88294 10.7394 5.86319 10.7571 5.85229C10.7749 5.84145 10.8092 5.81791 10.8333 5.8C10.8574 5.78213 10.8977 5.74761 10.9228 5.72333C10.948 5.69905 10.9841 5.66051 11.0033 5.63766C11.0224 5.61481 11.0525 5.57429 11.0702 5.54765C11.0879 5.52097 11.1165 5.47011 11.1337 5.43457C11.1511 5.39902 11.1736 5.34451 11.1839 5.3134C11.1942 5.28229 11.2076 5.23142 11.2139 5.20031C11.2202 5.1692 11.2274 5.12194 11.2301 5.0953C11.2334 5.06221 11.2349 4.39777 11.2349 2.99974C11.2349 1.60171 11.2334 0.937265 11.2301 0.90417C11.2274 0.87749 11.2202 0.830779 11.2141 0.800314C11.208 0.76985 11.1944 0.718938 11.1841 0.687228C11.1736 0.655471 11.1509 0.600451 11.1336 0.564909C11.1162 0.529368 11.0877 0.478455 11.07 0.451822C11.0525 0.425143 11.0223 0.384663 11.0031 0.361814C10.9839 0.338966 10.9508 0.303425 10.9296 0.282838C10.9084 0.262252 10.8775 0.234373 10.861 0.220894C10.8445 0.20737 10.8092 0.181937 10.7825 0.164305C10.7558 0.146673 10.705 0.118101 10.6694 0.100745C10.6339 0.0834363 10.5788 0.0607266 10.5471 0.0502949C10.5154 0.0399094 10.4645 0.0263851 10.434 0.0202923C10.4036 0.0141994 10.3584 0.00699882 10.3336 0.00432166C10.3023 0.000952134 8.86259 -0.000340286 5.60938 7.51347e-05C2.85957 0.000444398 0.914895 0.00238303 0.893201 0.0048294Z" fill="#0A1223"/>
<path d="M0.946317 0.0815091C0.932377 0.0825707 0.898128 0.0864941 0.870156 0.0901868C0.842185 0.0939256 0.798566 0.102188 0.773179 0.108604C0.747792 0.114974 0.707265 0.127575 0.683171 0.136622C0.65903 0.145622 0.619058 0.163116 0.594317 0.175487C0.569576 0.187857 0.535281 0.206551 0.518156 0.217029C0.501032 0.227506 0.467244 0.250862 0.44315 0.268956C0.419009 0.287004 0.377467 0.323607 0.350788 0.35024C0.324155 0.37692 0.287552 0.418462 0.269504 0.442602C0.25141 0.466697 0.228054 0.500484 0.217576 0.517609C0.207099 0.534733 0.188405 0.569029 0.176034 0.593769C0.163664 0.61851 0.14617 0.658483 0.137169 0.682623C0.128122 0.706718 0.115521 0.747244 0.109151 0.772631C0.102736 0.798018 0.0937348 0.842653 0.0891651 0.871871C0.0811798 0.922506 0.0808105 1.02078 0.0808105 3.00206C0.0808105 4.97101 0.081226 5.08179 0.0890267 5.12993C0.0935501 5.15786 0.102505 5.20148 0.108921 5.22687C0.115383 5.25225 0.12803 5.29273 0.137077 5.31687C0.146124 5.34097 0.165464 5.38459 0.180096 5.41381C0.194682 5.44298 0.219146 5.48558 0.23447 5.50843C0.249795 5.53128 0.278782 5.56968 0.298907 5.59382C0.319078 5.61792 0.349865 5.65092 0.367405 5.66707C0.384945 5.68323 0.415917 5.70954 0.436226 5.72546C0.456536 5.74139 0.491847 5.76618 0.514695 5.78053C0.537543 5.79489 0.577008 5.81672 0.602395 5.82904C0.627781 5.84141 0.673478 5.86006 0.703942 5.87058C0.734406 5.88106 0.784257 5.89473 0.814721 5.90086C0.845185 5.90705 0.893974 5.9142 0.923192 5.91679C0.958733 5.91993 2.50844 5.92145 5.61745 5.92145C8.72646 5.92145 10.2762 5.91993 10.3117 5.91679C10.3409 5.9142 10.3897 5.90705 10.4202 5.90086C10.4506 5.89473 10.5005 5.88106 10.531 5.87058C10.5614 5.86006 10.6071 5.84141 10.6325 5.82904C10.6579 5.81672 10.6974 5.79489 10.7202 5.78053C10.7431 5.76618 10.7784 5.74139 10.7987 5.72546C10.819 5.70954 10.85 5.68323 10.8675 5.66707C10.885 5.65092 10.9158 5.61792 10.936 5.59382C10.9561 5.56968 10.9851 5.53128 11.0004 5.50843C11.0158 5.48558 11.0402 5.44298 11.0548 5.41381C11.0694 5.38459 11.0888 5.34097 11.0978 5.31687C11.1069 5.29273 11.1195 5.25225 11.126 5.22687C11.1324 5.20148 11.1413 5.15786 11.1459 5.12993C11.1537 5.08179 11.1541 4.97101 11.1541 3.00206C11.1541 1.02078 11.1537 0.922506 11.1457 0.871871C11.1412 0.842653 11.1322 0.798018 11.1257 0.772631C11.1194 0.747244 11.1068 0.706718 11.0977 0.682623C11.0887 0.658483 11.0712 0.61851 11.0589 0.593769C11.0465 0.569029 11.0278 0.534733 11.0173 0.517609C11.0068 0.500484 10.9835 0.466697 10.9654 0.442602C10.9473 0.418462 10.9107 0.37692 10.8841 0.35024C10.8574 0.323607 10.8158 0.287004 10.7917 0.268956C10.7676 0.250862 10.7339 0.227506 10.7167 0.217029C10.6996 0.206551 10.6653 0.187857 10.6406 0.175487C10.6158 0.163116 10.5758 0.145622 10.5517 0.136622C10.5276 0.127575 10.4871 0.11502 10.4617 0.108604C10.4363 0.102234 10.3937 0.0932794 10.3671 0.0886636C10.3206 0.0807244 10.1252 0.0803552 5.64514 0.0799859C3.0747 0.0798013 0.960257 0.0804936 0.946317 0.0815091Z" fill="white"/>
<path d="M1.47947 0.70746C1.46932 0.710737 1.45478 0.716599 1.44716 0.720569C1.43954 0.724492 1.35484 0.808454 1.25893 0.907093C1.1404 1.029 1.08127 1.09316 1.07444 1.10728C1.06594 1.12468 1.06382 1.13968 1.0611 1.1996C1.05934 1.23892 1.05717 1.38847 1.05634 1.53193C1.05486 1.78174 1.05519 1.79342 1.06368 1.80888C1.06853 1.81774 1.20959 2.02651 1.37714 2.27277C1.54465 2.51902 1.69231 2.73467 1.70523 2.75198C1.71815 2.76929 1.73805 2.7896 1.74949 2.79707C1.7609 2.8046 1.77493 2.81064 1.78065 2.8106C1.78637 2.81055 1.79865 2.80686 1.80798 2.80243C1.8173 2.798 1.83364 2.78396 1.8443 2.77127C1.85492 2.75858 2.00438 2.5415 2.17641 2.28892C2.34839 2.0363 2.49301 1.82236 2.49771 1.8135C2.50242 1.80459 2.50791 1.78797 2.5099 1.77657C2.51193 1.76512 2.51138 1.61663 2.5087 1.44654L2.50381 1.13728C2.48271 1.09099 2.44966 1.05471 2.30519 0.906493C2.17253 0.77042 2.12416 0.723662 2.10694 0.714938L2.08414 0.703398C1.56357 0.701783 1.49378 0.702891 1.47947 0.70746Z" fill="#0A1223"/>
<path d="M1.75399 1.01977C1.72731 1.0219 1.67852 1.0278 1.64552 1.03283C1.61252 1.03791 1.55122 1.04941 1.50935 1.05841C1.46744 1.06745 1.43162 1.07484 1.42973 1.07488C1.42784 1.07493 1.42627 1.27535 1.42627 1.52035V1.96578C1.79687 1.96587 1.847 1.96449 1.87631 1.95899C1.89662 1.95521 1.92777 1.94718 1.94555 1.94122C1.96332 1.93522 1.99447 1.92174 2.01478 1.91127C2.03509 1.90079 2.06417 1.88214 2.0794 1.86991C2.09464 1.85768 2.11711 1.83529 2.1293 1.82015C2.14153 1.80506 2.15856 1.77815 2.1672 1.76038C2.17578 1.7426 2.18607 1.71454 2.19004 1.69806C2.19401 1.68154 2.19849 1.6483 2.20001 1.62421C2.20163 1.59878 2.20066 1.56873 2.19766 1.55266C2.19484 1.53743 2.18547 1.51043 2.17684 1.49266C2.16678 1.47193 2.15303 1.45292 2.13849 1.43958C2.12602 1.42813 2.10036 1.41068 2.08143 1.40081C2.06256 1.39088 2.02734 1.37754 2.00324 1.37113C1.96253 1.36033 1.95164 1.35945 1.85092 1.35912C1.78681 1.35894 1.72593 1.36116 1.70206 1.36457L1.66167 1.37034C1.66167 1.49289 1.66301 1.5084 1.66744 1.50697C1.67063 1.50595 1.70331 1.50254 1.74014 1.4994C1.79059 1.49506 1.81903 1.49492 1.85554 1.49875C1.88217 1.50152 1.91748 1.50789 1.93401 1.51288C1.95048 1.51786 1.97319 1.52889 1.98436 1.53729C1.99558 1.54574 2.00897 1.56097 2.01418 1.57113C2.02078 1.5841 2.02346 1.59781 2.02314 1.61729C2.02286 1.63423 2.01852 1.65574 2.01197 1.67268C2.00518 1.69026 1.99263 1.7096 1.97758 1.72576C1.96452 1.7397 1.94158 1.7577 1.92662 1.76573C1.91162 1.77376 1.88693 1.78405 1.87169 1.78867C1.84797 1.79578 1.82577 1.79698 1.71706 1.79712L1.59013 1.7973C1.58787 1.22162 1.58828 1.20403 1.5959 1.2021C1.60033 1.20094 1.62576 1.19683 1.65244 1.19296C1.67908 1.18908 1.73207 1.18354 1.77015 1.18068C1.82235 1.17671 1.85531 1.17676 1.904 1.18077C1.93955 1.18372 1.99249 1.19046 2.02171 1.19568C2.05088 1.20094 2.07876 1.20551 2.0836 1.20583C2.09117 1.20639 2.09574 1.19554 2.11471 1.13263C2.12695 1.09201 2.13705 1.05771 2.13715 1.05647C2.13724 1.05518 2.11596 1.04941 2.08988 1.04359C2.0638 1.03777 2.01649 1.03011 1.98478 1.0266C1.95302 1.02305 1.89902 1.01922 1.86477 1.01802C1.83047 1.01682 1.78062 1.0176 1.75399 1.01977Z" fill="white"/>
<path d="M7.19622 1.72107L7.19613 2.33045L7.41538 2.32814C7.42041 1.8415 7.42078 1.83323 7.43098 1.79963C7.43675 1.78057 7.44805 1.75269 7.45609 1.73764C7.46416 1.72259 7.47907 1.70173 7.48923 1.6913C7.49938 1.68091 7.51701 1.6678 7.52846 1.66217C7.53986 1.65659 7.5617 1.64976 7.57693 1.64699C7.5971 1.64334 7.61215 1.64334 7.63232 1.64708C7.64755 1.64994 7.66832 1.65687 7.67848 1.66254C7.68891 1.66831 7.70359 1.68285 7.71222 1.69582C7.72057 1.70852 7.72962 1.72716 7.73225 1.73732C7.73493 1.74747 7.73894 1.76718 7.7412 1.78117C7.74351 1.79511 7.74536 1.92444 7.74536 2.0685L7.7454 2.33045L7.96465 2.32814C7.96692 1.90367 7.96553 1.7832 7.96258 1.75347C7.9599 1.72679 7.95358 1.69047 7.9485 1.6727C7.94347 1.65493 7.93271 1.62686 7.92468 1.61038C7.91536 1.59137 7.89888 1.56921 7.87963 1.54992C7.86292 1.53316 7.83989 1.51465 7.82849 1.50884C7.81704 1.50302 7.79627 1.49439 7.78233 1.48964C7.76834 1.48488 7.73926 1.47888 7.71771 1.4763C7.69098 1.47311 7.66666 1.47316 7.64155 1.47639C7.62124 1.47902 7.58902 1.48631 7.57 1.49254C7.55094 1.49882 7.52186 1.51262 7.50538 1.52319C7.48886 1.53376 7.46241 1.55559 7.44653 1.57175L7.41768 1.60115L7.41538 1.11419L7.19631 1.11169L7.19622 1.72107ZM8.15159 1.72116V2.33045H8.36854V1.11188H8.15159V1.72116ZM3.125 1.76271V2.33045C3.59092 2.32735 3.605 2.32675 3.64889 2.31697C3.67428 2.31129 3.71061 2.30068 3.72967 2.29334C3.74869 2.28604 3.77675 2.27141 3.79198 2.26093C3.80721 2.25041 3.82669 2.23527 3.83528 2.22728C3.84386 2.2193 3.85979 2.19922 3.87063 2.18274C3.88148 2.16622 3.89602 2.13612 3.90294 2.11581C3.91305 2.08627 3.91601 2.06781 3.91776 2.0235C3.91942 1.9808 3.91813 1.96123 3.91213 1.93811C3.90779 1.92158 3.89773 1.89573 3.8897 1.88064C3.88162 1.86554 3.86256 1.84062 3.84723 1.82525C3.82794 1.80586 3.80744 1.79137 3.7803 1.77784C3.75879 1.76709 3.72459 1.75449 3.70428 1.74983L3.66736 1.74129C3.71028 1.72864 3.73622 1.71784 3.75275 1.70921C3.76923 1.70053 3.79207 1.68548 3.80352 1.67579C3.81492 1.6661 3.83269 1.64583 3.84299 1.63083C3.85328 1.61578 3.86676 1.58892 3.87299 1.57115C3.88264 1.54364 3.88425 1.53062 3.88411 1.48345C3.88397 1.44357 3.88157 1.42031 3.87557 1.40037C3.87096 1.38513 3.86085 1.36021 3.85319 1.34498C3.84502 1.32882 3.82692 1.30523 3.8098 1.28843C3.78884 1.26785 3.76955 1.25441 3.74236 1.24149C3.72141 1.23157 3.6866 1.2191 3.66505 1.21375C3.64345 1.20844 3.60398 1.20212 3.57735 1.19967C3.55067 1.19727 3.438 1.19519 3.32694 1.1951L3.125 1.19496V1.76271Z" fill="#0A1223"/>
<path d="M3.35617 1.51529L3.35571 1.65192C3.50905 1.6491 3.53974 1.64661 3.5565 1.6413C3.56919 1.63728 3.58992 1.62713 3.60252 1.61873C3.61512 1.61033 3.63174 1.59445 3.63945 1.58342C3.65172 1.56583 3.65362 1.55886 3.655 1.52572C3.65592 1.50361 3.65408 1.47947 3.65057 1.46729C3.64669 1.45399 3.637 1.43885 3.62361 1.42519C3.60986 1.4112 3.59315 1.40022 3.57496 1.3932C3.55004 1.3836 3.53781 1.38231 3.45195 1.3806L3.35668 1.37866L3.35617 1.51529Z" fill="white"/>
<path d="M4.32501 1.47673C4.30341 1.4789 4.27018 1.48384 4.25116 1.48771C4.2321 1.49155 4.19836 1.49995 4.17615 1.50636C4.15395 1.51278 4.12589 1.5227 4.11384 1.52843L4.09192 1.53881C4.09381 1.62467 4.09565 1.66621 4.09722 1.68652L4.10013 1.72344C4.13669 1.69944 4.15663 1.68767 4.16808 1.68185C4.17948 1.67599 4.20025 1.66695 4.21423 1.66173C4.22817 1.65647 4.2531 1.64913 4.26962 1.64534C4.2861 1.64161 4.31518 1.63717 4.33424 1.63551C4.35326 1.63385 4.38497 1.63477 4.40463 1.63759C4.4243 1.64036 4.45116 1.64733 4.46427 1.65305C4.47886 1.65942 4.49506 1.67152 4.50595 1.68421C4.51578 1.69561 4.52695 1.7143 4.53083 1.72575C4.53475 1.73715 4.53932 1.76162 4.54108 1.78003L4.54426 1.81354C4.39042 1.8135 4.32709 1.81576 4.30424 1.81853C4.28139 1.82134 4.24294 1.82864 4.21885 1.83478C4.19471 1.84091 4.1594 1.85365 4.14038 1.86312C4.11767 1.87438 4.09519 1.89063 4.07502 1.91034C4.05384 1.93102 4.03985 1.94976 4.03016 1.97039C4.02245 1.98687 4.01289 2.01285 4.00897 2.02809C4.00505 2.04332 4.00191 2.07341 4.00195 2.09501C4.002 2.11657 4.00509 2.14565 4.00883 2.15964C4.01257 2.17357 4.02139 2.19628 4.0284 2.21004C4.03542 2.22379 4.05282 2.24664 4.06708 2.26081C4.08135 2.27498 4.10419 2.29331 4.11786 2.30152C4.13152 2.30979 4.15723 2.3216 4.175 2.32783C4.19277 2.33407 4.22287 2.34164 4.24193 2.34459C4.26095 2.34759 4.29316 2.34893 4.31347 2.34754C4.33489 2.34611 4.36591 2.33993 4.38733 2.33277C4.40764 2.32603 4.43565 2.31394 4.44964 2.30586C4.46358 2.29783 4.48717 2.27978 4.50203 2.26584C4.51689 2.25186 4.533 2.23367 4.5378 2.22541C4.54265 2.21715 4.54814 2.21124 4.55003 2.21226C4.55192 2.21327 4.55474 2.23764 4.55631 2.26649C4.55783 2.29529 4.56042 2.32146 4.56208 2.32465C4.56429 2.32899 4.5889 2.33042 4.66081 2.33047H4.75659C4.75082 2.26428 4.74736 2.13494 4.74523 2.00039C4.74283 1.85181 4.73914 1.74398 4.73586 1.72575C4.73291 1.70923 4.72552 1.68015 4.71952 1.66113C4.71348 1.64207 4.70051 1.61405 4.69068 1.59882C4.6808 1.58358 4.66409 1.56332 4.65352 1.55381C4.64295 1.5443 4.62545 1.53101 4.61465 1.52427C4.60385 1.51753 4.58207 1.50715 4.56619 1.50119C4.55031 1.49524 4.51915 1.48735 4.49695 1.4837C4.47475 1.48005 4.43579 1.47608 4.4104 1.47488C4.38502 1.47368 4.34657 1.47451 4.32501 1.47673ZM5.30587 1.47825C5.29064 1.48162 5.26493 1.49141 5.24868 1.50004C5.22961 1.51019 5.20764 1.52792 5.18636 1.55035C5.16587 1.57195 5.14815 1.59623 5.1391 1.61497C5.13121 1.63145 5.12248 1.65014 5.1198 1.65651C5.11616 1.66519 5.11487 1.64673 5.11464 1.58151L5.11431 1.49496H4.92045V2.33042H5.13739C5.13739 2.04244 5.13951 1.936 5.14215 1.90807C5.14473 1.88015 5.15096 1.84225 5.15599 1.82384C5.16098 1.80542 5.16947 1.78156 5.17487 1.77075C5.18027 1.75995 5.1914 1.74283 5.19957 1.73267C5.20778 1.72252 5.22574 1.70807 5.2394 1.70055C5.26054 1.68901 5.27065 1.68661 5.30587 1.68499C5.32872 1.68393 5.3578 1.68527 5.37049 1.68795C5.38318 1.69067 5.39721 1.69404 5.40165 1.69547C5.40917 1.69787 5.40972 1.69081 5.40972 1.58959C5.40972 1.5299 5.40815 1.48028 5.40626 1.47927C5.40437 1.47825 5.3872 1.47627 5.36818 1.47484C5.34672 1.47318 5.32304 1.47451 5.30587 1.47825ZM6.62566 1.47553C6.61537 1.47668 6.58523 1.4807 6.55873 1.48453C6.53224 1.48836 6.48982 1.49764 6.46443 1.50512C6.43904 1.51264 6.40807 1.5233 6.39561 1.5288L6.37295 1.53881C6.3777 1.61391 6.37904 1.65494 6.37904 1.67844C6.37904 1.70383 6.38093 1.72114 6.38365 1.72114C6.38619 1.72114 6.39815 1.71449 6.4102 1.70636C6.42224 1.69824 6.44874 1.68379 6.46905 1.67429C6.48936 1.66473 6.52153 1.65287 6.54059 1.64793C6.55961 1.64299 6.59183 1.6375 6.61214 1.63574C6.63406 1.63385 6.66499 1.63477 6.6883 1.638C6.70985 1.64101 6.73842 1.64848 6.75176 1.65462C6.76524 1.66081 6.78218 1.67341 6.78994 1.68305C6.7976 1.69256 6.80798 1.71126 6.81301 1.7246C6.81805 1.73794 6.82372 1.76314 6.82562 1.78068L6.82908 1.81253C6.61786 1.81617 6.57373 1.8189 6.54521 1.82453C6.5236 1.82882 6.49037 1.83741 6.47135 1.84359C6.45229 1.84978 6.42427 1.86229 6.40904 1.87133C6.39381 1.88043 6.37027 1.89861 6.35674 1.91181C6.34322 1.92497 6.3272 1.94408 6.32111 1.95423C6.31506 1.96439 6.30569 1.98516 6.30034 2.00039C6.29498 2.01562 6.28862 2.0447 6.28612 2.06501C6.28308 2.09017 6.28321 2.11223 6.28663 2.13425C6.28949 2.15285 6.29859 2.18124 6.30805 2.20118C6.31991 2.2261 6.33279 2.24387 6.35407 2.26464C6.37465 2.28468 6.39529 2.29912 6.42173 2.31191C6.44269 2.32202 6.47228 2.33356 6.48751 2.33753C6.50274 2.34145 6.53284 2.34593 6.55444 2.34741C6.58223 2.34934 6.60512 2.34787 6.63291 2.34237C6.65488 2.33808 6.68839 2.32691 6.70907 2.31708C6.72938 2.30739 6.75689 2.29086 6.77023 2.28034C6.78357 2.26981 6.80328 2.24941 6.81408 2.23496L6.83369 2.20879C6.83891 2.26548 6.84149 2.29285 6.84283 2.30619L6.84523 2.33042H7.0391C7.03573 2.28569 7.03351 2.24881 7.03194 2.21964C7.03037 2.19042 7.02746 2.06787 7.02543 1.94731C7.02202 1.74555 7.02096 1.7251 7.01196 1.69113C7.0066 1.67082 6.99446 1.6386 6.98505 1.61959C6.9742 1.59757 6.95864 1.57574 6.9423 1.55958C6.92818 1.5456 6.90422 1.5276 6.88904 1.51952C6.8738 1.51144 6.84371 1.49967 6.82215 1.49335C6.80018 1.48693 6.75855 1.47968 6.72753 1.47691C6.69707 1.47419 6.66591 1.4723 6.65829 1.47271C6.65068 1.47318 6.636 1.47442 6.62566 1.47553ZM8.84156 1.47645C8.82379 1.47848 8.79573 1.48365 8.77925 1.48799C8.76272 1.49233 8.73678 1.50161 8.72155 1.50867C8.70632 1.51573 8.68449 1.52792 8.67309 1.53577C8.66164 1.54366 8.64008 1.56208 8.62513 1.57675C8.61017 1.59143 8.58852 1.61797 8.57698 1.63574C8.56545 1.65351 8.55007 1.68259 8.54278 1.70036C8.53553 1.71813 8.52566 1.74823 8.52086 1.76729C8.51606 1.78631 8.50992 1.81802 8.50724 1.83768C8.50452 1.85735 8.5023 1.89266 8.50235 1.91615C8.50235 1.93965 8.50535 1.97856 8.50899 2.0027C8.51264 2.02679 8.52012 2.06109 8.52561 2.07886C8.53106 2.09663 8.54357 2.12672 8.5534 2.14579C8.56323 2.1648 8.58234 2.19388 8.59586 2.21041C8.60939 2.22689 8.6339 2.25061 8.65024 2.26303C8.66662 2.27549 8.69663 2.29349 8.71694 2.30309C8.73724 2.31265 8.77048 2.32483 8.79079 2.33014C8.8111 2.33545 8.84641 2.3421 8.86926 2.34491C8.89377 2.34791 8.93637 2.34884 8.97311 2.34713C9.00736 2.34556 9.05098 2.34113 9.07004 2.33734C9.08906 2.33356 9.11814 2.32603 9.13466 2.32073C9.15114 2.31537 9.17875 2.30448 9.19596 2.29649L9.2273 2.28195C9.22703 2.1409 9.22527 2.10886 9.22236 2.10886C9.21983 2.10886 9.20164 2.11694 9.18198 2.12677C9.16231 2.13665 9.12853 2.151 9.10697 2.15862C9.08537 2.16628 9.05006 2.17593 9.0285 2.17999C9.0069 2.1841 8.97265 2.18742 8.95234 2.18742C8.93203 2.18742 8.90503 2.18548 8.89234 2.18313C8.87964 2.18073 8.85781 2.1745 8.84387 2.16924C8.82988 2.16402 8.80819 2.15188 8.79563 2.14237C8.78303 2.13282 8.76485 2.11463 8.7552 2.10194C8.74555 2.08924 8.73351 2.06797 8.72843 2.05463C8.7234 2.04129 8.71767 2.01899 8.71578 2.00505L8.71232 1.97976L9.28929 1.97967C9.28417 1.87766 9.27951 1.83039 9.27558 1.80884C9.27166 1.78723 9.26501 1.75714 9.26077 1.74191C9.25657 1.72667 9.2466 1.69861 9.23866 1.67959C9.23072 1.66053 9.21576 1.63251 9.20542 1.61728C9.19504 1.60205 9.17542 1.57915 9.16176 1.56641C9.14814 1.55367 9.12659 1.53664 9.11389 1.52856C9.1012 1.52049 9.07729 1.50881 9.06081 1.50258C9.04429 1.49635 9.01521 1.48813 8.99619 1.4843C8.97713 1.48047 8.94182 1.47631 8.91772 1.47507C8.89358 1.47382 8.85933 1.47442 8.84156 1.47645ZM9.84665 1.47687C9.82823 1.47922 9.79708 1.48647 9.77741 1.49302C9.75775 1.49958 9.73019 1.51181 9.71625 1.52026C9.70227 1.5287 9.67582 1.55137 9.6574 1.57066L9.62394 1.60574V1.49496H9.41623V2.33042H9.63317C9.63317 1.99961 9.63529 1.89127 9.6382 1.86538C9.64097 1.84064 9.64812 1.80477 9.65413 1.78576C9.66013 1.76669 9.67305 1.73868 9.68288 1.72344C9.69267 1.70821 9.70781 1.68979 9.71653 1.6825C9.72525 1.67521 9.73966 1.66551 9.74856 1.66099C9.75743 1.65651 9.7782 1.65042 9.79472 1.64747C9.8112 1.64456 9.83405 1.64354 9.8455 1.6453C9.8569 1.64701 9.87351 1.65139 9.88242 1.65499C9.89128 1.65864 9.9055 1.66824 9.91399 1.67636C9.92244 1.68449 9.9337 1.69944 9.93901 1.7096C9.94427 1.71975 9.9517 1.73946 9.95549 1.75345C9.96117 1.77431 9.96269 1.82799 9.96394 2.05463L9.96551 2.33042H10.1824L10.18 1.71421C10.1599 1.64982 10.1475 1.61866 10.1394 1.60343C10.1314 1.5882 10.1123 1.56318 10.0971 1.54781C10.08 1.5306 10.0579 1.5143 10.0394 1.50521C10.0228 1.49713 9.99791 1.48762 9.98397 1.48407C9.96998 1.48047 9.9409 1.47645 9.91935 1.47511C9.89775 1.47373 9.86507 1.47456 9.84665 1.47687ZM5.53435 1.58035V1.66575L5.93283 1.66805L5.51589 2.1504V2.33042H6.20825V2.15964L5.78309 2.15733L6.19473 1.67267L6.19441 1.49496H5.53435V1.58035Z" fill="#0A1223"/>
<path d="M8.85778 1.63944C8.84379 1.64262 8.82302 1.65001 8.81162 1.65592C8.80017 1.66178 8.78388 1.67318 8.77534 1.68121C8.7668 1.68924 8.75489 1.7036 8.7488 1.71311C8.74275 1.72261 8.73361 1.7408 8.72854 1.75349C8.72346 1.76619 8.71774 1.78797 8.71584 1.80191L8.71238 1.82721L9.07934 1.82735C9.07528 1.79693 9.07089 1.77667 9.06701 1.76273C9.06309 1.74874 9.05598 1.72954 9.05118 1.72003C9.04633 1.71052 9.03438 1.6939 9.02459 1.6831C9.01449 1.67203 8.99496 1.65804 8.97959 1.65093C8.96067 1.64221 8.94188 1.63768 8.91778 1.63602C8.89766 1.63464 8.8725 1.63607 8.85778 1.63944ZM3.35645 1.98705L3.35571 2.15276C3.48989 2.14764 3.53818 2.14417 3.54962 2.14173C3.56102 2.13933 3.58179 2.1331 3.59578 2.12797C3.60972 2.1228 3.62948 2.11205 3.63963 2.10406C3.64978 2.09608 3.66377 2.08094 3.67069 2.07037C3.67766 2.05984 3.68574 2.03977 3.6887 2.02583C3.69276 2.00667 3.69276 1.99167 3.68879 1.96467C3.68588 1.945 3.67951 1.92109 3.67462 1.91159C3.66977 1.90208 3.65782 1.88661 3.64808 1.8772C3.63838 1.86783 3.61895 1.8549 3.60501 1.84849C3.59103 1.84207 3.56924 1.83464 3.55655 1.83201C3.54385 1.82933 3.49377 1.82582 3.44531 1.82425L3.35714 1.82139L3.35645 1.98705ZM4.38277 1.94731C4.365 1.94911 4.33592 1.95497 4.31815 1.96033C4.30038 1.96568 4.27647 1.97593 4.26507 1.98313C4.25362 1.99033 4.23922 2.00344 4.23299 2.01221C4.22676 2.02098 4.21891 2.03746 4.21559 2.0489C4.21227 2.06031 4.20963 2.07798 4.20973 2.08814C4.20982 2.09829 4.21365 2.11491 4.21822 2.12507C4.22279 2.13522 4.23368 2.14948 4.24236 2.15673C4.25104 2.16402 4.26539 2.17321 4.2743 2.17722C4.28579 2.18239 4.30569 2.18456 4.34354 2.18479C4.39427 2.18507 4.398 2.18438 4.42778 2.17007C4.4449 2.16181 4.46881 2.14519 4.4809 2.13314C4.493 2.1211 4.50855 2.09977 4.51552 2.08583C4.52245 2.07185 4.53122 2.0459 4.535 2.02813C4.53879 2.01036 4.54188 1.98387 4.54192 1.96928L4.54202 1.94274C4.44365 1.94371 4.40054 1.94547 4.38277 1.94731ZM6.66297 1.94768C6.6452 1.94976 6.62185 1.95364 6.61104 1.95631C6.60024 1.95899 6.57947 1.96716 6.56489 1.97445C6.5503 1.98175 6.53202 1.99472 6.52431 2.0033C6.51656 2.01189 6.5065 2.02823 6.50197 2.03967C6.49611 2.05435 6.49413 2.06935 6.49523 2.09077C6.49643 2.11436 6.49962 2.12534 6.5095 2.14039C6.5185 2.15405 6.5299 2.16338 6.54873 2.17238C6.57292 2.18396 6.57998 2.18507 6.62835 2.18507C6.67673 2.18507 6.68379 2.18396 6.70798 2.17238C6.72256 2.16541 6.7461 2.14879 6.76027 2.13545C6.77574 2.12091 6.79148 2.10014 6.79965 2.08352C6.80712 2.06829 6.81622 2.03921 6.81986 2.0189C6.82351 1.99859 6.8266 1.97316 6.82669 1.96236L6.82683 1.94274C6.72487 1.94366 6.68074 1.94565 6.66297 1.94768Z" fill="white"/>
<path d="M1.04978 3.13979C1.0484 3.14321 1.04794 3.16139 1.04872 3.18018L1.05015 3.21438H10.1848V3.13591C1.79851 3.13379 1.05181 3.13462 1.04978 3.13979ZM4.44737 3.70518C4.43214 3.71275 4.41294 3.72646 4.40468 3.73555C4.39641 3.74464 4.38506 3.76094 4.37938 3.77174C4.37112 3.78748 4.36909 3.79911 4.369 3.83059C4.36895 3.85856 4.37117 3.87449 4.37684 3.88598C4.38123 3.89484 4.39184 3.91044 4.40043 3.9206C4.40901 3.93075 4.42725 3.94511 4.44096 3.95254C4.45896 3.96232 4.4741 3.96657 4.49584 3.968C4.51933 3.96957 4.53184 3.96768 4.55354 3.95946C4.57154 3.95263 4.58862 3.9416 4.60232 3.92784C4.61576 3.91441 4.62711 3.8971 4.63348 3.88021C4.63902 3.86562 4.64354 3.84328 4.64354 3.83059C4.64354 3.8179 4.63953 3.79662 4.63463 3.78328C4.62937 3.76892 4.61709 3.75009 4.60463 3.73712C4.59305 3.72507 4.57472 3.71072 4.56392 3.70518C4.55072 3.69849 4.53299 3.69456 4.50969 3.69327C4.47839 3.69152 4.47239 3.69267 4.44737 3.70518ZM8.7239 4.33371V4.943H8.87622C8.87904 4.42926 8.88001 4.39773 8.8873 4.37295C8.89178 4.35771 8.90202 4.33196 8.91005 4.31571C8.91952 4.29665 8.93447 4.27698 8.95238 4.26023C8.96761 4.24592 8.99148 4.22856 9.00546 4.22169C9.0194 4.21476 9.04539 4.20604 9.06316 4.20225C9.08093 4.19847 9.11001 4.19538 9.12778 4.19538C9.14555 4.19538 9.17306 4.19847 9.18894 4.20221C9.20482 4.20599 9.22661 4.21356 9.23741 4.21905C9.24821 4.22455 9.26741 4.23881 9.2801 4.25081C9.29501 4.26484 9.30844 4.28381 9.31804 4.30431C9.32631 4.32194 9.33494 4.35033 9.33757 4.36833C9.34029 4.38721 9.34228 4.5134 9.34232 4.67182L9.34242 4.943H9.49474C9.49211 4.33823 9.49187 4.33057 9.4819 4.29448C9.47627 4.27417 9.46303 4.23987 9.45241 4.21832C9.43736 4.18767 9.42495 4.17091 9.39587 4.14174C9.366 4.11188 9.35072 4.10066 9.31934 4.08566C9.29774 4.07532 9.26556 4.06318 9.24779 4.0587C9.22467 4.05284 9.19845 4.05062 9.15548 4.05081C9.10918 4.05104 9.08702 4.05339 9.05855 4.0611C9.03824 4.06655 9.00722 4.07873 8.98958 4.08815C8.97195 4.09752 8.94717 4.11455 8.93452 4.126C8.92187 4.1374 8.90359 4.15665 8.8939 4.1687L8.87622 4.19062V3.72443H8.7239V4.33371ZM2.1164 3.75955C2.10624 3.76329 2.09092 3.77298 2.08238 3.78115C2.0738 3.78928 2.06295 3.80428 2.05824 3.81443C2.05002 3.83211 2.04965 3.85925 2.04956 4.47103C2.04947 5.03757 2.05025 5.1111 2.05662 5.12647C2.06059 5.13598 2.06941 5.14974 2.07624 5.15708C2.08312 5.16437 2.09701 5.1742 2.10717 5.17886C2.11806 5.18394 2.13602 5.18745 2.15102 5.18745C2.16602 5.18745 2.18397 5.18394 2.19487 5.17886C2.20502 5.1742 2.21892 5.16437 2.22579 5.15708C2.23262 5.14974 2.24144 5.13598 2.24541 5.12647C2.25178 5.1111 2.25256 5.03757 2.25247 4.47103C2.25238 3.85925 2.25201 3.83211 2.24379 3.81443C2.23909 3.80428 2.22824 3.78932 2.21965 3.78115C2.21112 3.77303 2.19473 3.76311 2.18333 3.75914C2.17188 3.75517 2.15633 3.75212 2.14871 3.75235C2.14109 3.75258 2.12655 3.75581 2.1164 3.75955ZM2.79492 3.83913C2.78477 3.8437 2.77041 3.85459 2.76307 3.86327C2.75569 3.87195 2.74687 3.88579 2.74345 3.89406C2.73838 3.90634 2.73722 3.99842 2.73727 4.39949L2.73736 4.88991C2.75333 4.92162 2.7645 4.93616 2.77249 4.94267C2.78043 4.94918 2.79497 4.95707 2.8048 4.96021C2.81458 4.96335 2.82986 4.96594 2.83877 4.96594C2.84763 4.96594 2.86296 4.96335 2.87274 4.96021C2.88257 4.95707 2.89711 4.94918 2.90505 4.94267C2.91304 4.93616 2.92421 4.92162 2.92989 4.91036L2.94018 4.88991C2.94032 3.99842 2.93916 3.90634 2.93409 3.89406C2.93067 3.88579 2.92185 3.87204 2.91447 3.86341C2.90713 3.85482 2.89328 3.84393 2.88377 3.83918C2.87283 3.83373 2.85673 3.83064 2.83992 3.83068C2.82441 3.83073 2.80572 3.83428 2.79492 3.83913ZM1.80945 4.00719C1.80054 4.01014 1.78388 4.02201 1.77238 4.0335C1.76024 4.04569 1.74917 4.06221 1.74594 4.07292C1.74174 4.08686 1.74035 4.21564 1.74035 4.59681C1.74035 4.98481 1.74169 5.10639 1.74607 5.12006C1.74917 5.12989 1.75711 5.14443 1.76361 5.15237C1.77012 5.16035 1.78466 5.17152 1.79593 5.1772C1.80996 5.18426 1.82473 5.18754 1.84291 5.18759C1.8575 5.18759 1.87619 5.18482 1.88446 5.1814C1.89272 5.17794 1.90795 5.16603 1.91834 5.15486C1.932 5.14014 1.93865 5.1279 1.94257 5.11032C1.94645 5.09273 1.94788 4.95181 1.94783 4.59566C1.94774 4.27786 1.94603 4.09794 1.94298 4.08446C1.94035 4.07301 1.93315 4.05589 1.92692 4.04638C1.92069 4.03687 1.9068 4.02385 1.896 4.01753C1.88386 4.01038 1.86668 4.00516 1.85099 4.00387C1.83701 4.00271 1.81831 4.00419 1.80945 4.00719ZM2.4528 4.00931C2.43983 4.01384 2.42113 4.0239 2.41126 4.0317C2.40142 4.0395 2.38656 4.05612 2.37821 4.06863C2.3699 4.08114 2.36104 4.10177 2.3585 4.11446C2.35559 4.12895 2.35434 4.27144 2.35517 4.49757L2.35642 4.8576C2.37488 4.89758 2.38919 4.91655 2.40373 4.92993C2.42044 4.9453 2.43549 4.9544 2.4522 4.9592C2.46554 4.96303 2.48474 4.96617 2.49489 4.96617C2.50505 4.96617 2.52425 4.96303 2.53759 4.9592C2.5543 4.9544 2.56935 4.9453 2.58606 4.92993C2.6006 4.91655 2.6149 4.89758 2.62183 4.88262L2.63337 4.8576C2.63337 4.15286 2.63263 4.11695 2.62552 4.096C2.62081 4.08215 2.60877 4.06332 2.59552 4.04892C2.58236 4.03475 2.56395 4.02085 2.55028 4.01485C2.53759 4.00927 2.51576 4.00391 2.50182 4.00294C2.4852 4.00174 2.46826 4.00396 2.4528 4.00931ZM5.09589 4.05607C5.0742 4.06073 5.03709 4.07384 5.01281 4.08534C4.98867 4.09678 4.95649 4.11557 4.94126 4.12706C4.92603 4.13856 4.90106 4.16122 4.88578 4.17737C4.8705 4.19353 4.8495 4.21924 4.83911 4.23447C4.82873 4.2497 4.81442 4.27357 4.80736 4.28755C4.8003 4.30149 4.78959 4.32748 4.78349 4.34525C4.77745 4.36302 4.76942 4.39519 4.76568 4.4168C4.76189 4.43835 4.75885 4.47888 4.75885 4.5068C4.75885 4.53473 4.76189 4.57521 4.76568 4.59681C4.76942 4.61837 4.77745 4.65058 4.78349 4.66836C4.78959 4.68613 4.8003 4.71207 4.80736 4.72605C4.81442 4.73999 4.82873 4.7639 4.83911 4.77913C4.8495 4.79437 4.8705 4.82008 4.88578 4.83623C4.90106 4.85239 4.92603 4.87505 4.94126 4.8865C4.95649 4.89799 4.98765 4.91645 5.0105 4.92758C5.03778 4.94087 5.06792 4.95112 5.0982 4.95744C5.13596 4.96529 5.15446 4.96658 5.19975 4.9645C5.23021 4.96312 5.26861 4.9585 5.28514 4.95421C5.30162 4.94992 5.3276 4.94087 5.34283 4.93409C5.35807 4.9273 5.38087 4.91456 5.39356 4.90584C5.40621 4.89707 5.42647 4.88004 5.43857 4.86799C5.45066 4.85594 5.46165 4.84763 5.46298 4.84953C5.46432 4.85142 5.46534 4.87325 5.46529 4.89799L5.46515 4.943L5.68902 4.94069V4.07292L5.46515 4.07061C5.46534 4.14036 5.46432 4.16219 5.46298 4.16408C5.46165 4.16597 5.45066 4.15766 5.43857 4.14562C5.42647 4.13357 5.40621 4.11654 5.39356 4.10777C5.38087 4.09904 5.35807 4.0863 5.34283 4.07952C5.3276 4.07273 5.30162 4.06369 5.28514 4.05935C5.26755 4.05478 5.2303 4.05072 5.19513 4.04952C5.14837 4.04799 5.12645 4.04942 5.09589 4.05607ZM6.24753 4.05242C6.22976 4.05483 6.19703 4.06198 6.17483 4.0683C6.15263 4.07467 6.1194 4.08737 6.10098 4.0966C6.08256 4.10583 6.05814 4.11982 6.04674 4.12771C6.0353 4.13556 6.01171 4.15554 5.99426 4.17207C5.97686 4.18864 5.95323 4.21462 5.94183 4.22986C5.93043 4.24509 5.9133 4.27311 5.90379 4.29217C5.89428 4.31119 5.88219 4.34027 5.87693 4.35679C5.87162 4.37327 5.8647 4.39926 5.86146 4.41449C5.85823 4.42972 5.8556 4.47126 5.8556 4.5068C5.8556 4.54234 5.85823 4.58389 5.86146 4.59912C5.8647 4.61435 5.87162 4.64029 5.87688 4.65682C5.88219 4.67329 5.89373 4.70136 5.90259 4.71913C5.91145 4.7369 5.92516 4.76076 5.93306 4.77221C5.9409 4.78361 5.96089 4.80724 5.97741 4.82469C5.99398 4.84209 6.01997 4.86573 6.0352 4.87713C6.05044 4.88853 6.07901 4.90598 6.09867 4.91581C6.11833 4.92569 6.15157 4.93879 6.17252 4.94489C6.19348 4.95103 6.23239 4.9586 6.25907 4.96169C6.29632 4.96603 6.31875 4.96612 6.356 4.96206C6.38263 4.95915 6.41794 4.95287 6.43447 4.94816C6.45095 4.94341 6.47693 4.9345 6.49217 4.92832C6.5074 4.92218 6.53805 4.90528 6.56025 4.89084C6.58245 4.87634 6.6137 4.85156 6.62962 4.83568C6.6456 4.8198 6.6672 4.79437 6.67767 4.77913C6.68815 4.7639 6.69803 4.7483 6.69969 4.74452C6.70191 4.73935 6.6888 4.72947 6.64818 4.7057C6.61822 4.6882 6.58905 4.67103 6.58333 4.66762C6.57354 4.6618 6.5723 4.66263 6.5614 4.6822C6.55503 4.6936 6.53897 4.71391 6.52563 4.72725C6.51229 4.74059 6.48894 4.7591 6.4737 4.76843C6.45847 4.7777 6.4299 4.79067 6.41024 4.79723C6.38739 4.80484 6.35905 4.81011 6.33177 4.81181C6.30264 4.81361 6.27661 4.81223 6.24984 4.80738C6.22436 4.80277 6.19768 4.79381 6.17368 4.7819C6.15337 4.7718 6.12447 4.7525 6.10952 4.73902C6.09452 4.72555 6.07273 4.70099 6.06114 4.68451C6.04951 4.66799 6.03437 4.63997 6.02749 4.6222C6.02062 4.60443 6.01272 4.57119 6.00986 4.54835C6.00617 4.51862 6.00612 4.49531 6.00959 4.46641C6.01226 4.44421 6.01914 4.41306 6.02486 4.39718C6.03059 4.3813 6.04254 4.35614 6.0514 4.34128C6.06027 4.32642 6.08316 4.29942 6.10232 4.28128C6.12484 4.26 6.14935 4.24223 6.17155 4.2311C6.19048 4.22159 6.22053 4.21075 6.2383 4.20692C6.25607 4.20313 6.2893 4.19995 6.31215 4.1999C6.33943 4.19981 6.36639 4.20299 6.39062 4.20927C6.41093 4.21449 6.43978 4.22538 6.45473 4.23355C6.46969 4.24167 6.49434 4.25972 6.50957 4.27371C6.52475 4.28765 6.54419 4.31105 6.55277 4.32563L6.56833 4.35217L6.69757 4.27832C6.67851 4.24435 6.66429 4.22302 6.65363 4.20908C6.64301 4.1951 6.62205 4.17257 6.6071 4.15896C6.5921 4.14529 6.56533 4.12517 6.54756 4.11423C6.52979 4.10324 6.49964 4.08806 6.48063 4.08049C6.46156 4.07292 6.4299 4.06346 6.41024 4.05944C6.39057 4.05543 6.35319 4.05122 6.32715 4.05012C6.30112 4.04901 6.2653 4.05002 6.24753 4.05242ZM7.173 4.05266C7.15647 4.05487 7.12739 4.06096 7.10837 4.06627C7.08931 4.07158 7.05922 4.08321 7.04145 4.09217C7.02367 4.10112 6.99667 4.11732 6.98144 4.12817C6.96621 4.13906 6.93708 4.16533 6.91668 4.18661C6.89632 4.20784 6.86997 4.2408 6.8582 4.25986C6.84638 4.27888 6.83055 4.31003 6.82307 4.3291C6.81555 4.34811 6.80558 4.38033 6.80087 4.40064C6.7945 4.42792 6.79228 4.45566 6.79228 4.5068C6.79228 4.55795 6.7945 4.58569 6.80087 4.61297C6.80558 4.63328 6.81555 4.66545 6.82307 4.68451C6.83055 4.70353 6.84638 4.73468 6.85815 4.75375C6.86997 4.77276 6.89734 4.80678 6.91899 4.82926C6.94064 4.85174 6.97498 4.88114 6.99529 4.89458C7.0156 4.90801 7.04518 4.92439 7.06106 4.93099C7.07694 4.93759 7.10704 4.94701 7.12799 4.9519C7.14895 4.95684 7.18163 4.96224 7.20069 4.9639C7.22017 4.96561 7.25548 4.96455 7.28147 4.96141C7.30685 4.95837 7.3411 4.95177 7.35763 4.94669C7.3741 4.94161 7.40318 4.92947 7.42225 4.91969C7.44126 4.9099 7.47127 4.88885 7.48885 4.87284C7.50639 4.85686 7.52873 4.83388 7.53843 4.82183L7.55611 4.79991L7.55841 4.94069H7.71073V4.07292H7.55841L7.55611 4.2137C7.52163 4.17257 7.49929 4.14963 7.48424 4.13625C7.46919 4.12286 7.44126 4.10384 7.42225 4.09397C7.40318 4.08414 7.37309 4.07177 7.35532 4.06655C7.33755 4.06129 7.30533 4.05483 7.28377 4.05224C7.26217 4.04966 7.23517 4.04776 7.22377 4.04813C7.21232 4.04846 7.18947 4.05049 7.173 4.05266ZM8.16539 4.05238C8.14887 4.05469 8.12186 4.06106 8.10538 4.06646C8.08886 4.07186 8.06292 4.08307 8.04769 4.09138C8.03245 4.09964 8.00854 4.11672 7.99461 4.12932C7.98062 4.14188 7.96239 4.16237 7.95403 4.17484C7.94572 4.18734 7.93483 4.20844 7.9298 4.22178C7.92481 4.23512 7.91868 4.26055 7.91614 4.27832C7.913 4.3002 7.91304 4.32143 7.91632 4.3441C7.91895 4.36251 7.92634 4.38896 7.9328 4.40295C7.93922 4.41689 7.95214 4.43752 7.96146 4.44869C7.97079 4.45991 7.99091 4.47795 8.00615 4.48876C8.02138 4.4996 8.04215 4.51197 8.0523 4.51627C8.06246 4.52056 8.1154 4.53745 8.17001 4.55384C8.22456 4.57022 8.28794 4.59243 8.31079 4.60323C8.33364 4.61398 8.36027 4.62995 8.36992 4.63868C8.37961 4.64735 8.39073 4.66282 8.39466 4.67297C8.39978 4.68622 8.40089 4.69859 8.39858 4.71682C8.39683 4.73076 8.39272 4.74738 8.38944 4.75375C8.38616 4.76007 8.37647 4.77161 8.36793 4.77937C8.35934 4.78712 8.33987 4.79829 8.32463 4.80424C8.30372 4.81237 8.28448 4.81555 8.24617 4.81721C8.21552 4.81851 8.18441 4.81717 8.1677 4.8138C8.15247 4.81071 8.12754 4.8018 8.11231 4.79404C8.09708 4.78629 8.0745 4.77041 8.06213 4.75878C8.04981 4.7471 8.0337 4.72564 8.02636 4.71105L8.01307 4.68451C7.89001 4.75481 7.8841 4.75938 7.88678 4.76875C7.88844 4.77447 7.89758 4.7916 7.90709 4.80683C7.9166 4.82206 7.94069 4.8498 7.96063 4.86854C7.9875 4.89365 8.00771 4.90773 8.03846 4.92259C8.0613 4.93367 8.09869 4.94724 8.12154 4.95278C8.15399 4.96067 8.17721 4.96294 8.2277 4.96298C8.27889 4.96307 8.30072 4.961 8.33271 4.95306C8.35491 4.94752 8.38607 4.93704 8.40195 4.92979C8.41783 4.92255 8.44377 4.90699 8.45965 4.89518C8.47552 4.88341 8.49796 4.86079 8.50954 4.84491C8.52108 4.82903 8.53488 4.80461 8.54015 4.79067C8.54651 4.77378 8.55044 4.74987 8.55196 4.71913C8.55321 4.69351 8.55196 4.66166 8.5491 4.64758C8.54628 4.6336 8.53793 4.60974 8.5305 4.5945C8.52284 4.57876 8.50516 4.55485 8.48956 4.53911C8.47442 4.52388 8.44981 4.50486 8.43491 4.49688C8.41995 4.48885 8.36096 4.46845 8.30386 4.45151C8.24672 4.43457 8.18547 4.41444 8.1677 4.40683C8.14993 4.39916 8.12431 4.38532 8.11074 4.37604C8.09491 4.36514 8.083 4.3525 8.07737 4.34063C8.07252 4.33048 8.06855 4.31488 8.06855 4.30602C8.06855 4.29711 8.07054 4.28257 8.07303 4.27371C8.07547 4.2648 8.08346 4.25026 8.09075 4.2414C8.09809 4.23249 8.11526 4.21966 8.12897 4.21287C8.14263 4.20604 8.16941 4.19796 8.18847 4.19487C8.21538 4.19044 8.2313 4.19039 8.26001 4.19464C8.28032 4.19764 8.30733 4.20484 8.32002 4.2107C8.33271 4.21652 8.35034 4.22759 8.35925 4.23526C8.36811 4.24292 8.38256 4.26041 8.39129 4.27417C8.40001 4.28788 8.40781 4.2996 8.4086 4.30025C8.40938 4.30089 8.43804 4.2858 8.47234 4.26678C8.52256 4.2389 8.53415 4.23059 8.53193 4.22409C8.53045 4.21965 8.52164 4.20475 8.51231 4.19099C8.50303 4.17724 8.48088 4.15263 8.46311 4.13634C8.4428 4.11769 8.41709 4.09997 8.39387 4.08861C8.37356 4.07869 8.34134 4.0666 8.32233 4.06175C8.30326 4.0569 8.26694 4.05182 8.24155 4.05053C8.21616 4.04919 8.18187 4.05002 8.16539 4.05238ZM3.35117 4.07177C3.35117 4.07241 3.42544 4.26817 3.51618 4.5068L3.68115 4.94069H3.93844C4.19143 4.27532 4.26491 4.07957 4.26496 4.07638C4.26505 4.0719 4.23754 4.07061 4.14273 4.07061C4.03034 4.07061 4.02018 4.07126 4.01773 4.07869C4.01626 4.08312 3.97342 4.20618 3.9226 4.35217C3.87174 4.49813 3.82623 4.62954 3.82143 4.64412C3.81662 4.65871 3.81113 4.66988 3.80924 4.66891C3.80735 4.66794 3.75902 4.53284 3.70192 4.36874L3.59807 4.07033C3.4067 4.07056 3.35112 4.07112 3.35117 4.07177ZM4.39184 4.07638C4.3906 4.07957 4.39014 4.27532 4.39078 4.51142L4.39198 4.94069L4.61585 4.943V4.07061C4.42051 4.07061 4.39351 4.072 4.39184 4.07638Z" fill="#0A1223"/>
<path d="M7.20535 4.19982C7.19136 4.20167 7.17059 4.20577 7.15919 4.20887C7.14774 4.21196 7.12489 4.22156 7.10842 4.23019C7.09189 4.23882 7.06803 4.25443 7.05533 4.26481C7.04264 4.27524 7.02339 4.29449 7.01259 4.30755C7.00179 4.32066 6.98587 4.34485 6.97724 4.36137C6.96856 4.37785 6.9578 4.40485 6.95328 4.42138C6.94756 4.44238 6.94511 4.46804 6.94511 4.50677C6.94511 4.5455 6.94756 4.57116 6.95328 4.59216C6.9578 4.60864 6.96856 4.63564 6.97719 4.65217C6.98587 4.66865 7.00281 4.69412 7.0149 4.70871C7.02699 4.7233 7.04827 4.74379 7.06226 4.75422C7.0762 4.76465 7.09905 4.77901 7.11303 4.78607C7.12697 4.79313 7.15088 4.80209 7.16611 4.80592C7.18135 4.80975 7.20729 4.81418 7.22381 4.81575C7.24029 4.81732 7.27043 4.81644 7.29074 4.81386C7.31105 4.81123 7.34013 4.805 7.35536 4.80001C7.37059 4.79503 7.39861 4.7809 7.41767 4.76858C7.43669 4.75625 7.46429 4.73281 7.47897 4.71647C7.4937 4.70017 7.51281 4.67326 7.52148 4.65678C7.53016 4.64026 7.54152 4.61016 7.54673 4.58985C7.55324 4.56461 7.55624 4.53834 7.55624 4.50677C7.55624 4.4752 7.55324 4.44893 7.54673 4.42369C7.54152 4.40338 7.53016 4.37324 7.52148 4.35676C7.51281 4.34023 7.4937 4.31351 7.47897 4.29731C7.46429 4.2811 7.43775 4.25812 7.41998 4.24625C7.40221 4.23439 7.37415 4.22013 7.35767 4.21454C7.34114 4.20901 7.31207 4.20245 7.29305 4.19996C7.27398 4.19751 7.2522 4.19571 7.24458 4.19594C7.23697 4.19622 7.21929 4.19793 7.20535 4.19982ZM5.15825 4.26975C5.14809 4.27215 5.1263 4.28078 5.10983 4.2889C5.09261 4.29735 5.06898 4.31452 5.05444 4.32911C5.04045 4.34314 5.0224 4.367 5.01428 4.38219C5.0062 4.39742 4.99632 4.4223 4.99235 4.43753C4.98834 4.45277 4.98511 4.48392 4.98511 4.50677C4.98511 4.52962 4.98834 4.56077 4.99235 4.57601C4.99632 4.59124 5.0062 4.61612 5.01428 4.63135C5.0224 4.64654 5.04045 4.6704 5.05444 4.68443C5.06907 4.69911 5.09252 4.7161 5.10983 4.72459C5.1263 4.73267 5.14911 4.74144 5.16055 4.74407C5.17195 4.7467 5.20002 4.74887 5.22287 4.74887C5.24571 4.74887 5.27373 4.7467 5.28518 4.74407C5.29658 4.74144 5.31943 4.73267 5.33595 4.72459C5.35423 4.71563 5.3768 4.69902 5.39365 4.68212C5.40888 4.66685 5.42693 4.644 5.43376 4.63135C5.44059 4.61866 5.44946 4.59585 5.45347 4.58062C5.45786 4.56414 5.46081 4.53423 5.46081 4.50677C5.46081 4.47931 5.45786 4.4494 5.45347 4.43292C5.44946 4.41769 5.44059 4.39488 5.43376 4.38219C5.42693 4.36954 5.40888 4.34669 5.3936 4.33142C5.37833 4.31618 5.35446 4.29795 5.34052 4.29094C5.32658 4.28392 5.30374 4.2751 5.2898 4.27136C5.27503 4.2674 5.24604 4.26472 5.22056 4.26495C5.19642 4.26518 5.1684 4.26735 5.15825 4.26975Z" fill="white"/>
</svg>
