<svg width="9" height="6" viewBox="0 0 9 6" fill="none" xmlns="http://www.w3.org/2000/svg">
<path d="M8.48845 5.48458C8.48815 5.62119 8.43375 5.75211 8.33715 5.84871C8.24056 5.9453 8.10963 5.9997 7.97302 6H0.517984C0.381378 5.9997 0.250452 5.9453 0.153857 5.84871C0.0572616 5.75211 0.00286246 5.62119 0.00256348 5.48458V0.515987C0.00271291 0.379282 0.057046 0.248212 0.153658 0.151494C0.250269 0.0547763 0.38128 0.000299446 0.517984 0H7.97302C8.10963 0.000298986 8.24056 0.0546981 8.33715 0.151294C8.43375 0.247889 8.48815 0.378815 8.48845 0.515421V5.48458Z" fill="white"/>
<path d="M6.81996 1.67633H4.7817L4.57345 1.91061L3.90196 2.66813L3.69371 2.90241H1.68409L1.88713 2.66552L1.98345 2.55359L2.18649 2.3167H1.26249C1.09272 2.3167 0.955322 2.45987 0.955322 2.63168V3.29808C0.955322 3.47249 1.09329 3.61306 1.26249 3.61306H4.80774C4.97694 3.61306 5.20862 3.50894 5.32055 3.37878L5.8568 2.76965L6.81996 1.67633Z" fill="#005498"/>
<path d="M7.22857 0.965778C7.39834 0.965778 7.53574 1.10895 7.53574 1.28076V1.94444C7.53574 2.11885 7.39777 2.25942 7.22857 2.25942H6.30717L6.51282 2.02514L6.61468 1.908L6.82033 1.67372H4.78174L3.69634 2.89742H1.67371L3.12377 1.25733L3.17843 1.19485C3.29297 1.0673 3.52465 0.960571 3.69385 0.960571H7.22857V0.965778Z" fill="#FFD800"/>
<path d="M7.5357 5.0082V4.912C7.5357 4.89898 7.52789 4.89117 7.50966 4.89117H7.44719C7.42897 4.89117 7.41595 4.88857 7.41323 4.88076C7.40803 4.87295 7.40803 4.85733 7.40803 4.8313V4.46686H7.50989C7.51674 4.46669 7.52326 4.46389 7.52811 4.45905C7.53295 4.4542 7.53575 4.44768 7.53592 4.44083V4.33897C7.53575 4.33212 7.53295 4.3256 7.52811 4.32075C7.52326 4.31591 7.51674 4.31311 7.50989 4.31294H7.40803V4.18052C7.40838 4.17483 7.40652 4.16923 7.40282 4.1649C7.39807 4.16201 7.39274 4.16023 7.3872 4.15969H7.3846L7.23362 4.18572C7.22735 4.18785 7.22126 4.19046 7.2154 4.19353C7.21313 4.19549 7.21127 4.19788 7.20993 4.20056C7.20858 4.20324 7.20779 4.20616 7.20759 4.20915V4.31101H7.10573C7.09888 4.31119 7.09235 4.31398 7.08751 4.31883C7.08266 4.32367 7.07987 4.3302 7.07969 4.33705V4.42035C7.07931 4.42343 7.07984 4.42656 7.08123 4.42934C7.08262 4.43212 7.0848 4.43442 7.0875 4.43596C7.0926 4.44092 7.09887 4.4445 7.10573 4.44638L7.20759 4.462V4.82643C7.2071 4.86329 7.21147 4.90005 7.2206 4.93577C7.22864 4.96008 7.24198 4.98231 7.25965 5.00084C7.27819 5.01683 7.30065 5.02761 7.32473 5.03208C7.35459 5.03757 7.38491 5.04019 7.41527 5.03989C7.4318 5.04039 7.44835 5.03952 7.46473 5.03729C7.47775 5.03469 7.49597 5.03208 7.51419 5.02948C7.51699 5.02974 7.51981 5.02938 7.52246 5.02843C7.52511 5.02747 7.52751 5.02595 7.5295 5.02396C7.53149 5.02197 7.53301 5.01957 7.53397 5.01692C7.53492 5.01428 7.53528 5.01145 7.53502 5.00865M6.99447 4.99519V4.88325C6.99486 4.88017 6.99432 4.87704 6.99293 4.87426C6.99154 4.87148 6.98936 4.86917 6.98666 4.86763C6.98191 4.86475 6.97657 4.86297 6.97104 4.86243H6.96844C6.94591 4.86536 6.92324 4.8671 6.90053 4.86763C6.87196 4.87006 6.84329 4.87093 6.81463 4.87023C6.80121 4.87042 6.7879 4.86776 6.77558 4.86243C6.76274 4.85709 6.75117 4.8491 6.74163 4.839C6.73113 4.82619 6.72398 4.81099 6.7208 4.79474C6.71503 4.77178 6.71241 4.74813 6.71299 4.72446V4.62033C6.71241 4.59666 6.71503 4.57302 6.7208 4.55005C6.7251 4.53419 6.73215 4.51921 6.74163 4.5058C6.75117 4.49569 6.76274 4.48771 6.77558 4.48237C6.78797 4.47729 6.80123 4.47463 6.81463 4.47456C6.84329 4.47386 6.87196 4.47473 6.90053 4.47716C6.92136 4.47976 6.94478 4.47976 6.96844 4.48237H6.97104C6.97673 4.48272 6.98233 4.48086 6.98666 4.47716C6.98936 4.47562 6.99154 4.47332 6.99293 4.47054C6.99432 4.46776 6.99486 4.46463 6.99447 4.46154V4.34961C6.9952 4.34309 6.99333 4.33654 6.98926 4.33139C6.9829 4.32687 6.97587 4.32336 6.96844 4.32097C6.95022 4.31577 6.92939 4.31316 6.90053 4.30796C6.86777 4.30334 6.83467 4.3016 6.80161 4.30275C6.71311 4.30275 6.64316 4.32878 6.58815 4.38345C6.53609 4.43811 6.50746 4.51621 6.50746 4.62033V4.72446C6.50746 4.82632 6.53349 4.90668 6.58815 4.96134C6.64022 5.01601 6.71265 5.04204 6.80161 5.04204C6.83806 5.04204 6.8719 5.03944 6.90053 5.03684C6.92339 5.03374 6.94606 5.02939 6.96844 5.02382C6.97628 5.02254 6.98354 5.01891 6.98926 5.01341C6.99447 5.0108 6.99447 5.00299 6.99447 4.99519ZM6.17958 4.86243C6.1637 4.87005 6.14714 4.87616 6.13012 4.88065C6.11235 4.88579 6.09395 4.88842 6.07545 4.88846C6.04942 4.88846 6.02859 4.88585 6.01558 4.87804C6.00256 4.87023 5.99736 4.85462 5.99736 4.82598V4.81557C5.99745 4.80239 5.9992 4.78927 6.00256 4.77652C6.00621 4.76555 6.0126 4.7557 6.02112 4.74789C6.03076 4.73961 6.04252 4.7342 6.05508 4.73227C6.07308 4.72872 6.09139 4.72698 6.10974 4.72706H6.17958V4.86288V4.86243ZM6.37741 4.55786C6.37825 4.51782 6.37117 4.47801 6.35659 4.44072C6.34361 4.41071 6.32404 4.38402 6.29932 4.36262C6.27294 4.34077 6.24169 4.32559 6.20821 4.31837C6.16834 4.30757 6.12717 4.30231 6.08586 4.30275C6.04495 4.30268 6.00408 4.30528 5.96351 4.31056C5.9318 4.31387 5.90044 4.31997 5.8698 4.32878C5.85418 4.33399 5.84637 4.3418 5.84637 4.35742V4.45928C5.84652 4.4657 5.84832 4.47197 5.85158 4.4775C5.85633 4.48039 5.86167 4.48217 5.8672 4.48271H5.87241C5.88282 4.48271 5.89583 4.4801 5.90885 4.4801C5.92447 4.4801 5.94009 4.4775 5.95831 4.4775C5.97653 4.4775 5.99736 4.4749 6.01818 4.4749H6.07771C6.10137 4.47353 6.12493 4.47895 6.14562 4.49052C6.16124 4.50093 6.17165 4.52447 6.17165 4.5608V4.60505H6.10374C5.99702 4.60505 5.91632 4.62067 5.86946 4.65451C5.82 4.68847 5.79657 4.74302 5.79657 4.81591V4.82632C5.79657 4.86797 5.80178 4.90181 5.8148 4.92818C5.82602 4.95422 5.84292 4.97742 5.86426 4.99609C5.88448 5.01228 5.9075 5.02463 5.93216 5.03253C5.9584 5.03999 5.98559 5.0435 6.01286 5.04295C6.04565 5.04371 6.07831 5.03841 6.10918 5.02733C6.13674 5.01654 6.16295 5.00256 6.18727 4.98568V5.0065C6.18744 5.01335 6.19024 5.01987 6.19509 5.02472C6.19993 5.02956 6.20645 5.03236 6.2133 5.03253H6.35387C6.36072 5.03236 6.36724 5.02956 6.37209 5.02472C6.37693 5.01987 6.37973 5.01335 6.3799 5.0065V4.55786H6.37741ZM5.70841 5.0082V4.912C5.70841 4.89898 5.7006 4.89117 5.68238 4.89117H5.6199C5.60168 4.89117 5.58866 4.88857 5.58595 4.88076C5.58074 4.87295 5.58074 4.85733 5.58074 4.8313V4.46686H5.6826C5.68945 4.46669 5.69597 4.46389 5.70082 4.45905C5.70566 4.4542 5.70846 4.44768 5.70863 4.44083V4.33897C5.70846 4.33212 5.70566 4.3256 5.70082 4.32075C5.69597 4.31591 5.68945 4.31311 5.6826 4.31294H5.58074V4.18052C5.5811 4.17483 5.57923 4.16923 5.57553 4.1649C5.57079 4.16201 5.56545 4.16023 5.55992 4.15969H5.55709L5.4061 4.18572C5.39984 4.18785 5.39374 4.19046 5.38788 4.19353C5.38561 4.19549 5.38375 4.19788 5.38241 4.20056C5.38107 4.20324 5.38028 4.20616 5.38007 4.20915V4.31101H5.27595C5.2691 4.31119 5.26258 4.31398 5.25773 4.31883C5.25289 4.32367 5.25009 4.3302 5.24992 4.33705V4.42035C5.24953 4.42343 5.25006 4.42656 5.25145 4.42934C5.25284 4.43212 5.25503 4.43442 5.25773 4.43596C5.26282 4.44092 5.26909 4.4445 5.27595 4.44638L5.37781 4.462V4.82643C5.37732 4.86329 5.38169 4.90005 5.39083 4.93577C5.39886 4.96008 5.4122 4.98231 5.42987 5.00084C5.44842 5.01683 5.47088 5.02761 5.49495 5.03208C5.525 5.03761 5.55551 5.04022 5.58606 5.03989C5.60259 5.04039 5.61913 5.03952 5.63552 5.03729C5.64854 5.03469 5.66676 5.03208 5.68498 5.02948C5.7006 5.02948 5.70841 5.02167 5.70841 5.00865M5.16175 5.00605V4.58955C5.16228 4.55197 5.15879 4.51445 5.15134 4.47761C5.14598 4.44534 5.13445 4.41441 5.11738 4.3865C5.10138 4.36009 5.07768 4.3392 5.04947 4.32663C5.01472 4.30955 4.97623 4.30149 4.93754 4.3032C4.90136 4.30271 4.86533 4.30798 4.83081 4.31882C4.79536 4.331 4.762 4.34856 4.73189 4.37089V4.33965C4.73172 4.3328 4.72892 4.32628 4.72408 4.32143C4.71923 4.31659 4.71271 4.31379 4.70586 4.31362H4.56563C4.55878 4.31379 4.55226 4.31659 4.54741 4.32143C4.54257 4.32628 4.53977 4.3328 4.5396 4.33965V5.00605C4.53977 5.0129 4.54257 5.01942 4.54741 5.02427C4.55226 5.02911 4.55878 5.03191 4.56563 5.03208H4.71661C4.72346 5.03191 4.72998 5.02911 4.73483 5.02427C4.73967 5.01942 4.74247 5.0129 4.74264 5.00605V4.51361C4.76296 4.50299 4.78382 4.49343 4.80512 4.48497C4.82333 4.47775 4.8428 4.47421 4.86239 4.47456C4.87814 4.47471 4.89384 4.47645 4.90925 4.47976C4.92048 4.48265 4.93051 4.48903 4.93788 4.49799C4.94529 4.50881 4.94978 4.52136 4.9509 4.53443C4.95319 4.55256 4.95406 4.57083 4.9535 4.5891V5.0056C4.95367 5.01245 4.95647 5.01897 4.96131 5.02381C4.96616 5.02866 4.97268 5.03146 4.97953 5.03163H5.13051C5.13393 5.03172 5.13733 5.03107 5.14048 5.02973C5.14363 5.02838 5.14644 5.02636 5.14873 5.02382C5.15243 5.02236 5.15562 5.01987 5.15793 5.01663C5.16024 5.0134 5.16157 5.00957 5.16175 5.0056M4.21432 4.71665C4.21432 4.81851 4.17788 4.87023 4.10239 4.87023C4.06594 4.87023 4.03731 4.85722 4.01909 4.83119C4.00086 4.80516 3.99045 4.76611 3.99045 4.71665V4.62814C3.99045 4.57608 4.00086 4.53964 4.01909 4.51361C4.03731 4.48757 4.06594 4.47456 4.10239 4.47456C4.17527 4.47456 4.21432 4.52662 4.21432 4.62814V4.71665ZM4.41725 4.62814C4.41756 4.58205 4.41053 4.53621 4.39643 4.49233C4.38384 4.45455 4.36344 4.41984 4.33656 4.39047C4.30897 4.36152 4.27514 4.33926 4.23764 4.32539C4.15014 4.29415 4.05452 4.29415 3.96702 4.32539C3.92952 4.33926 3.89569 4.36152 3.8681 4.39047C3.84122 4.41984 3.82082 4.45455 3.80823 4.49233C3.79413 4.53621 3.7871 4.58205 3.78741 4.62814V4.71665C3.7871 4.76274 3.79413 4.80858 3.80823 4.85247C3.82082 4.89025 3.84122 4.92495 3.8681 4.95433C3.89569 4.98327 3.92952 5.00553 3.96702 5.01941C4.05452 5.05064 4.15014 5.05064 4.23764 5.01941C4.27514 5.00553 4.30897 4.98327 4.33656 4.95433C4.36344 4.92495 4.38384 4.89025 4.39643 4.85247C4.41053 4.80858 4.41756 4.76274 4.41725 4.71665V4.62814ZM3.72233 4.99519V4.88325C3.72272 4.88017 3.72218 4.87704 3.72079 4.87426C3.7194 4.87148 3.71722 4.86917 3.71452 4.86763C3.70899 4.86437 3.70272 4.86258 3.6963 4.86243H3.69369C3.67117 4.86536 3.6485 4.8671 3.62579 4.86763C3.59722 4.87006 3.56854 4.87093 3.53988 4.87023C3.52646 4.87042 3.51315 4.86776 3.50084 4.86243C3.488 4.85709 3.47643 4.8491 3.46688 4.839C3.45639 4.82619 3.44924 4.81099 3.44606 4.79474C3.44029 4.77178 3.43766 4.74813 3.43825 4.72446V4.62033C3.43766 4.59666 3.44029 4.57302 3.44606 4.55005C3.45035 4.53419 3.4574 4.51921 3.46688 4.5058C3.47643 4.49569 3.488 4.48771 3.50084 4.48237C3.51323 4.47729 3.52649 4.47463 3.53988 4.47456C3.56854 4.47386 3.59722 4.47473 3.62579 4.47716C3.64661 4.47976 3.67004 4.47976 3.69369 4.48237H3.6963C3.70272 4.48222 3.70899 4.48043 3.71452 4.47716C3.71722 4.47562 3.7194 4.47332 3.72079 4.47054C3.72218 4.46776 3.72272 4.46463 3.72233 4.46154V4.34961C3.72306 4.34309 3.72119 4.33654 3.71712 4.33139C3.71075 4.32687 3.70373 4.32336 3.6963 4.32097C3.67808 4.31577 3.65725 4.31316 3.62839 4.30796C3.59563 4.30334 3.56253 4.3016 3.52947 4.30275C3.44096 4.30275 3.37102 4.32878 3.31601 4.38345C3.26395 4.43811 3.23532 4.51621 3.23532 4.62033V4.72446C3.23532 4.82632 3.26135 4.90668 3.31601 4.96134C3.36808 5.01601 3.44051 5.04204 3.52947 5.04204C3.56591 5.04204 3.59976 5.03944 3.62839 5.03684C3.65702 5.03163 3.67785 5.02903 3.6963 5.02382C3.70413 5.02254 3.7114 5.01891 3.71712 5.01341C3.72076 5.00805 3.72258 5.00166 3.72233 4.99519ZM3.10539 5.0056V4.5891C3.10592 4.55152 3.10243 4.51399 3.09497 4.47716C3.08962 4.44489 3.07809 4.41396 3.06102 4.38605C3.04501 4.35964 3.02132 4.33875 2.99311 4.32618C2.95836 4.3091 2.91986 4.30104 2.88118 4.30275C2.845 4.30226 2.80897 4.30753 2.77445 4.31837C2.739 4.33055 2.70564 4.34811 2.67553 4.37043V4.3392C2.67536 4.33235 2.67256 4.32582 2.66771 4.32098C2.66287 4.31613 2.65635 4.31334 2.6495 4.31316H2.50927C2.50242 4.31334 2.4959 4.31613 2.49105 4.32098C2.48621 4.32582 2.48341 4.33235 2.48324 4.3392V5.0056C2.48341 5.01245 2.48621 5.01897 2.49105 5.02381C2.4959 5.02866 2.50242 5.03146 2.50927 5.03163H2.66025C2.6671 5.03146 2.67362 5.02866 2.67847 5.02381C2.68331 5.01897 2.68611 5.01245 2.68628 5.0056V4.51361C2.7066 4.50299 2.72745 4.49343 2.74876 4.48497C2.76697 4.47775 2.78644 4.47421 2.80603 4.47456C2.82178 4.47471 2.83748 4.47645 2.85288 4.47976C2.86412 4.48265 2.87415 4.48903 2.88152 4.49799C2.88893 4.50881 2.89341 4.52136 2.89453 4.53443C2.89683 4.55256 2.8977 4.57083 2.89713 4.5891V5.0056C2.89731 5.01245 2.9001 5.01897 2.90495 5.02381C2.90979 5.02866 2.91632 5.03146 2.92317 5.03163H3.07415C3.07757 5.03172 3.08097 5.03107 3.08412 5.02973C3.08726 5.02838 3.09008 5.02636 3.09237 5.02382C3.09607 5.02236 3.09926 5.01987 3.10157 5.01663C3.10388 5.0134 3.1052 5.00957 3.10539 5.0056ZM2.13702 4.86243C2.12115 4.87005 2.10459 4.87616 2.08756 4.88065C2.06979 4.88579 2.05139 4.88842 2.03289 4.88846C2.00686 4.88846 1.98604 4.88585 1.97302 4.87804C1.96001 4.87023 1.9548 4.85462 1.9548 4.82598V4.81557C1.95489 4.80239 1.95664 4.78927 1.96001 4.77652C1.96356 4.76559 1.96983 4.75574 1.97823 4.74789C1.98786 4.73961 1.99963 4.7342 2.01218 4.73227C2.03019 4.72872 2.0485 4.72698 2.06685 4.72706H2.13713L2.13702 4.86243ZM2.33746 4.55786C2.33829 4.51782 2.33122 4.47801 2.31664 4.44072C2.30366 4.41071 2.28408 4.38402 2.25937 4.36262C2.23316 4.34085 2.20211 4.32567 2.16882 4.31837C2.12895 4.30757 2.08778 4.30231 2.04648 4.30275C2.00557 4.30268 1.9647 4.30528 1.92413 4.31056C1.89242 4.31387 1.86106 4.31997 1.83042 4.32878C1.8148 4.33399 1.80699 4.3418 1.80699 4.35742V4.45928C1.80714 4.4657 1.80893 4.47197 1.81219 4.4775C1.81694 4.48039 1.82228 4.48217 1.82781 4.48271H1.83302C1.84343 4.48271 1.85645 4.4801 1.86946 4.4801C1.88508 4.4801 1.9007 4.4775 1.92153 4.4775C1.93975 4.4775 1.96057 4.4749 1.9814 4.4749H2.04127C2.06493 4.47353 2.08849 4.47895 2.10918 4.49052C2.1248 4.50093 2.13521 4.52447 2.13521 4.5608V4.60505H2.0673C1.96057 4.60505 1.87988 4.62067 1.83302 4.65451C1.78356 4.68847 1.76013 4.74302 1.76013 4.81591V4.82632C1.76013 4.86797 1.76534 4.90181 1.77835 4.92818C1.78957 4.95422 1.80647 4.97742 1.82781 4.99609C1.84804 5.01228 1.87105 5.02463 1.89572 5.03253C1.92195 5.03999 1.94915 5.0435 1.97642 5.04295C2.00921 5.04371 2.04186 5.03841 2.07273 5.02733C2.1003 5.01654 2.12651 5.00256 2.15083 4.98568V5.0065C2.151 5.01335 2.1538 5.01987 2.15864 5.02472C2.16349 5.02956 2.17001 5.03236 2.17686 5.03253H2.31743C2.32428 5.03236 2.3308 5.02956 2.33564 5.02472C2.34049 5.01987 2.34329 5.01335 2.34346 5.0065V4.55786H2.33746ZM1.44198 4.7557C1.44257 4.77104 1.4396 4.78631 1.4333 4.80031C1.42699 4.81431 1.41753 4.82666 1.40565 4.83639C1.38222 4.85462 1.33537 4.86503 1.27289 4.86503H1.16877V4.63075H1.30934C1.3588 4.63075 1.39524 4.64116 1.41346 4.6647C1.43152 4.68676 1.44158 4.71429 1.44198 4.74279V4.7557ZM1.43734 4.38345C1.43689 4.3966 1.43515 4.40968 1.43214 4.4225C1.42834 4.43467 1.42116 4.4455 1.41142 4.45373C1.39961 4.46273 1.38643 4.46976 1.37238 4.47456C1.35208 4.48038 1.33101 4.48302 1.3099 4.48237H1.16877V4.26687H1.26508C1.33016 4.26687 1.37441 4.27468 1.4009 4.2903C1.41363 4.29816 1.42398 4.30934 1.43084 4.32264C1.4377 4.33594 1.44081 4.35086 1.43983 4.36579L1.43734 4.38345ZM1.65023 4.74223C1.65143 4.70261 1.64054 4.66357 1.619 4.63029C1.59943 4.59894 1.57148 4.57369 1.5383 4.55741C1.57124 4.54176 1.59852 4.5163 1.61639 4.48452C1.63495 4.45105 1.6448 4.41345 1.64503 4.37519V4.35176C1.64597 4.30852 1.63613 4.26574 1.61639 4.22726C1.59713 4.19368 1.56928 4.16583 1.5357 4.14656C1.497 4.12486 1.45491 4.1099 1.4112 4.10231C1.35783 4.09367 1.30386 4.08932 1.2498 4.08929H1.18733C1.1665 4.08929 1.14568 4.0919 1.12485 4.0919C1.10566 4.09222 1.08652 4.09396 1.06758 4.0971C1.04936 4.09971 1.03635 4.09971 1.02593 4.10231C1.00251 4.10752 0.984283 4.11272 0.973871 4.12574C0.963458 4.13615 0.958252 4.15698 0.958252 4.18561V4.94822C0.958252 4.97685 0.963458 4.99507 0.973871 5.00809C0.988806 5.02043 1.00679 5.02852 1.02593 5.03152C1.04048 5.03468 1.0553 5.03643 1.07019 5.03672C1.08841 5.03933 1.10663 5.03933 1.12746 5.04193C1.14821 5.04409 1.16907 5.04496 1.18993 5.04453H1.25501C1.30647 5.04441 1.35784 5.04006 1.40859 5.03152C1.45239 5.02425 1.49454 5.00927 1.53309 4.98726C1.56844 4.96624 1.59797 4.93671 1.619 4.90136C1.64116 4.85884 1.65192 4.81131 1.65023 4.76339V4.74223Z" fill="#005498"/>
</svg>
