<svg width="6" height="6" viewBox="0 0 6 6" fill="none" xmlns="http://www.w3.org/2000/svg">
<path d="M2.51314 4.83391H4.59263C5.06749 4.83391 5.07223 4.32919 5.02388 4.08002C4.9974 3.91257 4.71288 3.91399 4.68153 4.08002V4.27448C4.68139 4.31728 4.66432 4.35828 4.63405 4.38854C4.60378 4.4188 4.56277 4.43585 4.51997 4.43597H0.533127C0.490336 4.43585 0.449332 4.41879 0.419074 4.38854C0.388815 4.35828 0.371761 4.31727 0.371636 4.27448V4.08002C0.340285 3.91399 0.0556946 3.91257 0.0292872 4.08002C-0.0190587 4.32919 -0.0143867 4.83391 0.460405 4.83391H2.51314ZM1.04272 0H4.2494C4.47467 0 4.65898 0.195009 4.65898 0.433353V0.640549C4.65898 0.933401 4.26219 0.93225 4.26219 0.642513V0.529435C4.2621 0.494749 4.24829 0.46151 4.22376 0.436983C4.19923 0.412457 4.16599 0.398638 4.13131 0.398549H0.918405C0.883725 0.398656 0.850496 0.41248 0.825973 0.437003C0.80145 0.461526 0.787626 0.494755 0.787519 0.529435V0.640279C0.787519 0.931437 0.409419 0.929474 0.409419 0.646576V0.433353C0.409419 0.195009 0.593729 0 0.819276 0H1.04272Z" fill="#2C6CAE"/>
<path d="M4.5781 2.38111C4.80019 2.48559 4.95349 2.70125 4.95349 2.94881C4.95349 3.29793 4.64879 3.58353 4.27638 3.58353H3.23193C3.13429 3.58353 3.05432 3.50864 3.05432 3.41717V1.43051C3.05448 1.3843 3.07292 1.34004 3.10562 1.30738C3.13831 1.27472 3.1826 1.25633 3.22881 1.25623H4.0985C4.46461 1.25623 4.76417 1.55544 4.76417 1.92115C4.76409 2.09279 4.69738 2.2577 4.5781 2.38111ZM3.7986 2.21935H4.13039V2.21563C4.20474 2.20401 4.27252 2.16628 4.32155 2.10919C4.37058 2.0521 4.39766 1.97941 4.39792 1.90416C4.39769 1.82061 4.3644 1.74056 4.30532 1.68149C4.24625 1.62241 4.1662 1.58912 4.08265 1.58889H3.41475V3.23732H4.26155C4.3047 3.23795 4.34754 3.22998 4.38759 3.2139C4.42764 3.19782 4.46409 3.17393 4.49483 3.14364C4.52556 3.11334 4.54997 3.07724 4.56663 3.03743C4.58329 2.99762 4.59187 2.95489 4.59187 2.91173C4.59187 2.86858 4.58329 2.82585 4.56663 2.78604C4.54997 2.74623 4.52556 2.71012 4.49483 2.67983C4.46409 2.64953 4.42764 2.62565 4.38759 2.60957C4.34754 2.59348 4.3047 2.58552 4.26155 2.58614H4.13039V2.58533H3.7986C3.75007 2.58533 3.70353 2.56605 3.66921 2.53174C3.63489 2.49742 3.61561 2.45087 3.61561 2.40234C3.61561 2.35381 3.63489 2.30727 3.66921 2.27295C3.70353 2.23863 3.75007 2.21935 3.7986 2.21935Z" fill="#434142"/>
<path d="M1.1755 5.444C1.1755 5.42915 1.1814 5.4149 1.1919 5.4044C1.2024 5.3939 1.21664 5.388 1.2315 5.388C1.24635 5.388 1.26059 5.3939 1.27109 5.4044C1.28159 5.4149 1.28749 5.42915 1.28749 5.444V5.74667C1.28738 5.81333 1.26084 5.87723 1.21368 5.92435C1.16653 5.97147 1.10261 5.99796 1.03594 5.99801C0.969352 5.99789 0.905522 5.97138 0.858427 5.9243C0.811333 5.87722 0.784811 5.8134 0.784668 5.7468V5.444C0.784668 5.42915 0.790568 5.4149 0.801069 5.4044C0.811571 5.3939 0.825814 5.388 0.840665 5.388C0.855517 5.388 0.86976 5.3939 0.880261 5.4044C0.890763 5.4149 0.896663 5.42915 0.896663 5.444V5.74701C0.896928 5.78388 0.911683 5.81916 0.937743 5.84525C0.963802 5.87133 0.999075 5.88612 1.03594 5.88642C1.07293 5.88623 1.10835 5.87145 1.1345 5.84529C1.16066 5.81914 1.17544 5.78372 1.17563 5.74674L1.1755 5.444Z" fill="#434142"/>
<path d="M1.70465 5.88628C1.71201 5.88628 1.71929 5.88773 1.72608 5.89054C1.73288 5.89336 1.73905 5.89748 1.74425 5.90268C1.74945 5.90788 1.75357 5.91406 1.75639 5.92085C1.7592 5.92764 1.76065 5.93493 1.76065 5.94228C1.76065 5.94963 1.7592 5.95692 1.75639 5.96371C1.75357 5.9705 1.74945 5.97668 1.74425 5.98188C1.73905 5.98708 1.73288 5.9912 1.72608 5.99401C1.71929 5.99683 1.71201 5.99828 1.70465 5.99828H1.55007C1.49438 5.99821 1.44099 5.97608 1.40158 5.93674C1.36216 5.8974 1.33993 5.84406 1.33976 5.78837V5.44399C1.33949 5.43648 1.34075 5.42899 1.34344 5.42197C1.34614 5.41495 1.35022 5.40855 1.35544 5.40314C1.36066 5.39774 1.36692 5.39344 1.37384 5.3905C1.38076 5.38756 1.3882 5.38605 1.39572 5.38605C1.40324 5.38605 1.41068 5.38756 1.4176 5.3905C1.42452 5.39344 1.43078 5.39774 1.436 5.40314C1.44122 5.40855 1.4453 5.41495 1.448 5.42197C1.45069 5.42899 1.45194 5.43648 1.45168 5.44399V5.78803C1.45188 5.81416 1.46235 5.83916 1.48084 5.85762C1.49933 5.87609 1.52435 5.88653 1.55047 5.88669H1.70506L1.70465 5.88628Z" fill="#434142"/>
<path d="M2.8884 3.38516C2.89131 3.41254 2.88879 3.44022 2.881 3.46662C2.8732 3.49303 2.86028 3.51764 2.84297 3.53905C2.82567 3.56047 2.80431 3.57826 2.78013 3.59142C2.75595 3.60458 2.72941 3.61285 2.70203 3.61575C2.67465 3.61865 2.64697 3.61613 2.62056 3.60834C2.59416 3.60054 2.56955 3.58763 2.54813 3.57032C2.52672 3.55301 2.50893 3.53166 2.49577 3.50747C2.48261 3.48329 2.47434 3.45675 2.47144 3.42937L2.29999 1.84947L1.69188 3.3943L1.6912 3.39579L1.68951 3.39985L1.68815 3.40303V3.40385L1.68673 3.40703L1.68578 3.40899L1.68436 3.41204L1.68368 3.41339L1.68206 3.41658L1.68145 3.41773C1.67044 3.43865 1.65595 3.45754 1.63859 3.47359L1.63791 3.47413L1.6348 3.47698C1.62368 3.4868 1.61153 3.49541 1.59857 3.50264L1.59769 3.50318L1.5937 3.50528L1.59004 3.50717L1.58835 3.50799L1.58598 3.50914L1.58347 3.51029L1.58124 3.5113L1.57866 3.51246L1.57643 3.5134L1.57426 3.51428L1.5723 3.51503L1.57122 3.5155L1.56946 3.51611L1.56668 3.5172L1.56505 3.51774C1.54528 3.52464 1.52457 3.52854 1.50364 3.52932H1.48827C1.46476 3.52845 1.44157 3.52362 1.41968 3.51503L1.4169 3.51395H1.41616L1.41338 3.51279L1.41067 3.51164L1.40844 3.51056L1.40614 3.50948L1.40363 3.50833L1.40214 3.50758L1.39835 3.50562H1.39794L1.39469 3.50379L1.39286 3.50284C1.38152 3.49644 1.3708 3.48901 1.36084 3.48063L1.36002 3.47989C1.35765 3.47786 1.35535 3.47589 1.35325 3.47379L1.34804 3.46871C1.34635 3.46702 1.34459 3.46526 1.34296 3.4635C1.34086 3.4612 1.33883 3.45896 1.3368 3.45673L1.33612 3.45598C1.32774 3.44602 1.3203 3.4353 1.31391 3.42396L1.3129 3.42213L1.31107 3.41881V3.4184L1.30911 3.41468L1.30836 3.41319L1.30721 3.41069L1.30606 3.40832L1.30511 3.40615L1.30389 3.40344L1.30267 3.40066V3.39992L1.30152 3.39714L0.691916 1.84947L0.520268 3.42937C0.517678 3.45699 0.509632 3.48381 0.496596 3.50829C0.483561 3.53278 0.465796 3.55443 0.444331 3.57199C0.422866 3.58955 0.398129 3.60268 0.371552 3.61061C0.344975 3.61855 0.317088 3.62112 0.289508 3.6182C0.261928 3.61527 0.235202 3.6069 0.210882 3.59357C0.186561 3.58024 0.165129 3.56221 0.147827 3.54053C0.130525 3.51886 0.117698 3.49396 0.11009 3.46729C0.102482 3.44062 0.100243 3.4127 0.103505 3.38516L0.305962 1.52249V1.5212C0.314749 1.44418 0.34895 1.37228 0.403162 1.31687C0.457373 1.26146 0.528503 1.22569 0.605313 1.21521H0.60572C0.609512 1.21474 0.613371 1.21433 0.617163 1.21399C0.634807 1.21201 0.652574 1.21136 0.670316 1.21203H0.671129C0.692466 1.21295 0.713677 1.21578 0.734507 1.22049C0.78923 1.23303 0.840054 1.25877 0.882543 1.29547C0.925032 1.33216 0.957896 1.37869 0.978268 1.43101L1.49646 2.74718L2.01459 1.43101C2.03497 1.3787 2.06783 1.33217 2.11032 1.29547C2.15281 1.25878 2.20363 1.23304 2.25835 1.22049C2.27918 1.21577 2.30039 1.21294 2.32173 1.21203H2.32254C2.34021 1.21124 2.3579 1.21176 2.37549 1.21359C2.37928 1.21393 2.38301 1.21433 2.3868 1.21481H2.38721C2.44184 1.22213 2.49395 1.24235 2.53922 1.2738C2.58449 1.30525 2.62163 1.34702 2.64756 1.39566C2.65793 1.41514 2.66645 1.43554 2.67302 1.4566C2.67958 1.47761 2.68412 1.49919 2.68656 1.52106V1.52181V1.52235L2.8884 3.38516Z" fill="#434142"/>
<path d="M0.763558 5.9357C0.764416 5.943 0.763829 5.95039 0.761829 5.95746C0.75983 5.96453 0.756458 5.97114 0.751906 5.9769C0.747354 5.98267 0.74171 5.98748 0.735298 5.99107C0.728886 5.99465 0.721831 5.99694 0.714535 5.99779C0.707239 5.99865 0.699845 5.99807 0.692777 5.99607C0.685708 5.99407 0.679102 5.9907 0.673336 5.98614C0.66757 5.98159 0.662758 5.97595 0.659173 5.96954C0.655588 5.96312 0.653302 5.95607 0.652443 5.94877L0.604436 5.54555L0.43333 5.94227C0.429027 5.95233 0.421867 5.9609 0.412737 5.96693C0.403607 5.97295 0.392909 5.97616 0.38197 5.97616C0.371032 5.97616 0.360334 5.97295 0.351204 5.96693C0.342074 5.9609 0.334914 5.95233 0.330611 5.94227L0.159505 5.54555L0.111497 5.94877C0.109764 5.96351 0.102249 5.97695 0.0906048 5.98614C0.0789604 5.99534 0.0641408 5.99953 0.0494062 5.99779C0.0346715 5.99606 0.0212287 5.98855 0.0120351 5.9769C0.00284151 5.96526 -0.00134984 5.95044 0.000383127 5.9357L0.0560419 5.46748C0.0578355 5.45276 0.0632445 5.43871 0.0717865 5.42659C0.0803286 5.41447 0.091738 5.40465 0.104997 5.39801C0.108535 5.39618 0.112175 5.39455 0.115899 5.39313L0.120232 5.39164C0.12561 5.39 0.131113 5.3888 0.136686 5.38805H0.137634C0.151685 5.38618 0.165976 5.38742 0.179492 5.3917C0.193008 5.39597 0.205418 5.40316 0.215841 5.41277C0.223062 5.41962 0.229122 5.4276 0.233784 5.4364C0.234983 5.43839 0.236025 5.44047 0.236899 5.44263L0.381937 5.77895L0.526974 5.44263C0.532913 5.42926 0.541949 5.4175 0.553335 5.40832C0.564721 5.39913 0.578129 5.39279 0.592451 5.38981C0.597863 5.3886 0.603367 5.38783 0.608905 5.38751C0.612987 5.38727 0.617079 5.38727 0.621161 5.38751H0.621499L0.62563 5.38785H0.626104C0.640359 5.38951 0.654045 5.39441 0.66612 5.40217C0.678195 5.40992 0.688339 5.42034 0.695779 5.43261C0.698754 5.43766 0.701226 5.44299 0.703159 5.44852C0.704429 5.4521 0.705447 5.45577 0.706206 5.45949C0.706828 5.46192 0.70728 5.46438 0.707561 5.46687V5.46734L0.763558 5.9357Z" fill="#434142"/>
<path d="M1.94934 5.94231C1.94883 5.95681 1.94272 5.97055 1.93228 5.98064C1.92184 5.99072 1.90789 5.99636 1.89337 5.99636C1.87886 5.99636 1.86491 5.99072 1.85447 5.98064C1.84403 5.97055 1.83792 5.95681 1.83741 5.94231V5.49988H1.67802C1.66349 5.49937 1.64974 5.49325 1.63964 5.4828C1.62954 5.47234 1.6239 5.45838 1.6239 5.44385C1.6239 5.42932 1.62954 5.41535 1.63964 5.4049C1.64974 5.39445 1.66349 5.38832 1.67802 5.38782H2.10866C2.12319 5.38832 2.13695 5.39445 2.14704 5.4049C2.15714 5.41535 2.16278 5.42932 2.16278 5.44385C2.16278 5.45838 2.15714 5.47234 2.14704 5.4828C2.13695 5.49325 2.12319 5.49937 2.10866 5.49988H1.94934V5.94231Z" fill="#434142"/>
<path d="M2.29861 5.94228C2.2981 5.95679 2.29198 5.97053 2.28154 5.98061C2.2711 5.99069 2.25716 5.99633 2.24264 5.99633C2.22813 5.99633 2.21418 5.99069 2.20374 5.98061C2.1933 5.97053 2.18718 5.95679 2.18668 5.94228V5.44399C2.18642 5.43648 2.18767 5.42899 2.19037 5.42197C2.19306 5.41495 2.19714 5.40855 2.20236 5.40314C2.20759 5.39774 2.21384 5.39344 2.22076 5.3905C2.22768 5.38756 2.23513 5.38605 2.24264 5.38605C2.25016 5.38605 2.2576 5.38756 2.26452 5.3905C2.27144 5.39344 2.2777 5.39774 2.28292 5.40314C2.28814 5.40855 2.29222 5.41495 2.29492 5.42197C2.29761 5.42899 2.29887 5.43648 2.29861 5.44399V5.94228Z" fill="#434142"/>
<path d="M3.44731 5.93546C3.44846 5.94288 3.44811 5.95045 3.44627 5.95773C3.44443 5.965 3.44115 5.97184 3.43662 5.97782C3.43209 5.9838 3.4264 5.98882 3.4199 5.99256C3.41339 5.9963 3.4062 5.9987 3.39875 5.99961C3.3913 6.00051 3.38374 5.99992 3.37653 5.99785C3.36931 5.99577 3.36259 5.99228 3.35676 5.98755C3.35092 5.98283 3.34609 5.97699 3.34256 5.97037C3.33903 5.96374 3.33687 5.95648 3.3362 5.949L3.3165 5.7909H3.12244C3.10758 5.7909 3.09334 5.785 3.08284 5.7745C3.07234 5.76399 3.06644 5.74975 3.06644 5.7349C3.06644 5.72005 3.07234 5.7058 3.08284 5.6953C3.09334 5.6848 3.10758 5.6789 3.12244 5.6789H3.30255L3.29747 5.6378V5.63739C3.29747 5.63604 3.29747 5.63475 3.29747 5.63347C3.29586 5.62378 3.2936 5.61421 3.2907 5.60483C3.2877 5.59468 3.28385 5.5848 3.27919 5.5753C3.25698 5.53095 3.21676 5.49981 3.16597 5.49981H3.16543C3.15594 5.49982 3.14649 5.50096 3.13726 5.50319C3.12857 5.50533 3.12016 5.50849 3.11221 5.5126C3.06928 5.53447 3.0405 5.58228 3.03434 5.63733L2.99927 5.9488C2.99846 5.95609 2.99623 5.96316 2.99269 5.96959C2.98916 5.97603 2.98439 5.9817 2.97866 5.98629C2.97294 5.99088 2.96636 5.9943 2.95931 5.99634C2.95226 5.99839 2.94488 5.99903 2.93758 5.99823C2.93029 5.99742 2.92322 5.99519 2.91679 5.99165C2.91036 5.98812 2.90468 5.98335 2.90009 5.97762C2.8955 5.9719 2.89209 5.96532 2.89004 5.95827C2.88799 5.95122 2.88735 5.94384 2.88815 5.93654L2.92316 5.62507C2.93352 5.53319 2.98451 5.45193 3.06156 5.41273C3.07728 5.40479 3.09387 5.39872 3.11099 5.39465C3.12872 5.39028 3.1469 5.38801 3.16516 5.38788H3.1657C3.26273 5.38788 3.33816 5.44462 3.37866 5.52554C3.38633 5.54076 3.39267 5.55662 3.39761 5.57293C3.402 5.58786 3.40528 5.60309 3.40743 5.6185C3.40785 5.62024 3.40817 5.62201 3.40838 5.62378V5.62419L3.44731 5.93546Z" fill="#434142"/>
<path d="M3.61871 5.94229C3.61871 5.95714 3.61281 5.97138 3.60231 5.98188C3.59181 5.99238 3.57756 5.99828 3.56271 5.99828C3.54786 5.99828 3.53362 5.99238 3.52312 5.98188C3.51261 5.97138 3.50671 5.95714 3.50671 5.94229V5.47907C3.50671 5.47589 3.50698 5.47272 3.50753 5.46959C3.50825 5.46339 3.50972 5.45729 3.51193 5.45145C3.51327 5.44802 3.51481 5.44468 3.51653 5.44142C3.526 5.42413 3.54161 5.41101 3.56027 5.40466C3.5628 5.4038 3.56538 5.4031 3.56799 5.40256C3.56996 5.40215 3.57192 5.40168 3.57395 5.40141H3.57436C3.57885 5.40086 3.58338 5.40066 3.5879 5.4008H3.58939C3.60087 5.40122 3.61212 5.40416 3.62234 5.4094C3.63257 5.41464 3.64152 5.42206 3.64857 5.43113L3.9465 5.8112V5.444C3.9465 5.42915 3.9524 5.4149 3.9629 5.4044C3.9734 5.3939 3.98764 5.388 4.0025 5.388C4.01735 5.388 4.03159 5.3939 4.04209 5.4044C4.05259 5.4149 4.05849 5.42915 4.05849 5.444V5.90498C4.05851 5.91672 4.0559 5.92832 4.05085 5.93892C4.0458 5.94953 4.03844 5.95887 4.02931 5.96626C4.02572 5.96917 4.0219 5.97178 4.01787 5.97404C4.01563 5.97526 4.01326 5.97641 4.0111 5.97743H4.01049C4.00899 5.97814 4.00745 5.97877 4.00588 5.97932C3.99614 5.98274 3.98582 5.9842 3.97551 5.98362C3.96521 5.98304 3.95512 5.98043 3.94582 5.97594C3.94333 5.9749 3.94093 5.97365 3.93864 5.97221C3.93471 5.96977 3.93099 5.96698 3.92754 5.96389C3.92511 5.96157 3.92284 5.95908 3.92077 5.95644L3.91887 5.95427L3.9182 5.95339L3.62027 5.57346L3.61871 5.94229Z" fill="#434142"/>
<path d="M4.4933 5.88631C4.50065 5.88631 4.50793 5.88776 4.51472 5.89057C4.52152 5.89339 4.52769 5.89751 4.53289 5.90271C4.53809 5.90791 4.54222 5.91408 4.54503 5.92088C4.54784 5.92767 4.54929 5.93495 4.54929 5.94231C4.54929 5.94966 4.54784 5.95694 4.54503 5.96374C4.54222 5.97053 4.53809 5.9767 4.53289 5.9819C4.52769 5.9871 4.52152 5.99123 4.51472 5.99404C4.50793 5.99686 4.50065 5.9983 4.4933 5.9983H4.32822C4.26974 5.99818 4.21369 5.9749 4.17234 5.93356C4.13098 5.89221 4.10769 5.83618 4.10754 5.7777V5.6091C4.10763 5.55061 4.1309 5.49455 4.17225 5.45318C4.2136 5.41182 4.26966 5.38854 4.32815 5.38843H4.4933C4.50065 5.38843 4.50793 5.38988 4.51472 5.39269C4.52152 5.3955 4.52769 5.39963 4.53289 5.40483C4.53809 5.41003 4.54222 5.4162 4.54503 5.423C4.54784 5.42979 4.54929 5.43707 4.54929 5.44443C4.54929 5.45178 4.54784 5.45906 4.54503 5.46585C4.54222 5.47265 4.53809 5.47882 4.53289 5.48402C4.52769 5.48922 4.52152 5.49335 4.51472 5.49616C4.50793 5.49897 4.50065 5.50042 4.4933 5.50042H4.32815C4.29927 5.5006 4.27162 5.51216 4.25121 5.5326C4.2308 5.55303 4.21927 5.58069 4.21913 5.60957V5.77817C4.21933 5.80704 4.23088 5.83468 4.2513 5.85509C4.27171 5.87551 4.29934 5.88706 4.32822 5.88726H4.4933V5.88631Z" fill="#434142"/>
<path d="M4.81736 5.49961C4.77789 5.4995 4.73992 5.51466 4.71139 5.54193C4.69787 5.55464 4.68707 5.56996 4.67963 5.58697C4.6722 5.60397 4.66828 5.6223 4.66812 5.64086V5.74533C4.66829 5.76386 4.67221 5.78217 4.67963 5.79914C4.68705 5.81612 4.69783 5.83142 4.71132 5.84412C4.7399 5.87141 4.77791 5.8866 4.81742 5.88651C4.8569 5.88663 4.89488 5.87143 4.92339 5.84412C4.93691 5.83143 4.94771 5.81612 4.95513 5.79913C4.96256 5.78213 4.96646 5.76381 4.96659 5.74527V5.64079C4.96646 5.62226 4.96257 5.60395 4.95516 5.58697C4.94774 5.56999 4.93696 5.55469 4.92346 5.542C4.8949 5.51469 4.85687 5.4995 4.81736 5.49961ZM4.81736 5.38782C4.8857 5.38768 4.95146 5.41398 5.00085 5.46122C5.02525 5.48435 5.0447 5.51219 5.05803 5.54305C5.07135 5.57392 5.07828 5.60717 5.07838 5.64079V5.7452C5.07828 5.77882 5.07135 5.81207 5.05803 5.84293C5.0447 5.8738 5.02525 5.90164 5.00085 5.92477C4.95148 5.97201 4.88575 5.99831 4.81742 5.99817C4.74899 5.99836 4.68313 5.97206 4.63366 5.92477C4.60935 5.90164 4.58997 5.87383 4.5767 5.84302C4.56342 5.8122 4.55651 5.77902 4.5564 5.74547V5.64092C4.55649 5.60735 4.5634 5.57414 4.57671 5.54331C4.59001 5.51248 4.60943 5.48466 4.63379 5.46156C4.68312 5.41429 4.74884 5.38798 4.81715 5.38816L4.81736 5.38782Z" fill="#434142"/>
<path d="M2.45797 5.49979V5.88622H2.67464C2.69329 5.88608 2.71113 5.87861 2.72431 5.86542C2.73748 5.85223 2.74494 5.83438 2.74506 5.81573C2.74501 5.79814 2.73831 5.78121 2.72631 5.76834L2.72414 5.76624C2.71767 5.75965 2.70996 5.75441 2.70145 5.75082C2.69294 5.74723 2.68381 5.74536 2.67458 5.74531H2.60009C2.58524 5.74531 2.571 5.73942 2.5605 5.72891C2.55 5.71841 2.5441 5.70417 2.5441 5.68932C2.5441 5.67447 2.55 5.66022 2.5605 5.64972C2.571 5.63922 2.58524 5.63332 2.60009 5.63332H2.62555C2.64149 5.63196 2.65644 5.62501 2.66774 5.61368C2.67398 5.60747 2.67894 5.60009 2.68232 5.59195C2.6857 5.58382 2.68744 5.5751 2.68744 5.56629C2.68723 5.5486 2.68011 5.53169 2.66759 5.51919C2.65508 5.50669 2.63816 5.49958 2.62048 5.49939H2.45797V5.49979ZM2.34604 5.68939V5.44623C2.34603 5.43858 2.34757 5.431 2.35058 5.42396C2.35343 5.41676 2.35772 5.41022 2.36317 5.40473L2.36385 5.40412C2.37378 5.39454 2.38684 5.38886 2.40062 5.38814C2.40172 5.38804 2.40283 5.38804 2.40393 5.38814H2.61993C2.66724 5.38821 2.7126 5.40703 2.74606 5.44047C2.77953 5.47391 2.79838 5.51925 2.79849 5.56656C2.79845 5.60012 2.78892 5.63298 2.771 5.66135C2.78248 5.66863 2.79313 5.67714 2.80275 5.68674C2.80397 5.6879 2.80506 5.68918 2.80621 5.69047C2.83817 5.72421 2.85601 5.76892 2.85604 5.8154C2.85595 5.86365 2.83675 5.9099 2.80264 5.94402C2.76853 5.97815 2.72229 5.99736 2.67404 5.99747H2.40163C2.39428 5.99746 2.387 5.99601 2.38021 5.99318C2.37342 5.99036 2.36725 5.98623 2.36206 5.98102C2.35686 5.97582 2.35275 5.96964 2.34994 5.96284C2.34713 5.95604 2.34569 5.94876 2.3457 5.94141L2.34604 5.68939Z" fill="#434142"/>
</svg>
