<svg width="22" height="6" viewBox="0 0 22 6" fill="none" xmlns="http://www.w3.org/2000/svg">
<path d="M4.88049 1.91338H3.38049C3.38049 1.66826 3.35122 1.50362 3.29268 1.41582C3.20488 1.29143 2.9561 1.22923 2.55366 1.22923C2.1622 1.22923 1.90244 1.26582 1.77439 1.33533C1.64634 1.4085 1.58415 1.56582 1.58415 1.80362C1.58415 2.02314 1.63902 2.16582 1.75244 2.23533C1.83293 2.28289 1.93902 2.31216 2.07073 2.32313L2.37439 2.34509C3.02195 2.38899 3.42805 2.41826 3.58902 2.43655C4.10122 2.48777 4.47439 2.62314 4.70488 2.84631C4.88781 3.01826 4.9939 3.24509 5.03049 3.52314C5.04878 3.68777 5.05976 3.87801 5.05976 4.08655C5.05976 4.56948 5.0122 4.92435 4.92073 5.14753C4.75244 5.55728 4.37927 5.81704 3.7939 5.92679C3.54878 5.9707 3.17561 5.99631 2.67073 5.99631C1.82927 5.99631 1.2439 5.94509 0.914634 5.84631C0.508537 5.72192 0.241463 5.47314 0.109756 5.09631C0.0365854 4.88777 0 4.54021 0 4.04996H1.5C1.5 4.10484 1.5 4.14509 1.5 4.17435C1.5 4.43411 1.57683 4.6024 1.72317 4.67557C1.82561 4.72679 1.95366 4.7524 2.1 4.75606H2.65244C2.93415 4.75606 3.11342 4.74143 3.19024 4.71216C3.32927 4.65728 3.41707 4.56948 3.46098 4.44874C3.48293 4.37557 3.4939 4.27679 3.4939 4.15972C3.4939 3.89631 3.39878 3.73533 3.20488 3.67679C3.13171 3.65484 2.79878 3.62192 2.19878 3.58167C1.71951 3.54875 1.38659 3.51582 1.2 3.48289C0.709756 3.39143 0.380488 3.20118 0.215854 2.91582C0.0731711 2.6707 0 2.30118 0 1.80728C0 1.43045 0.0402444 1.13045 0.117074 0.903623C0.193903 0.676793 0.321952 0.504842 0.493903 0.387769C0.746342 0.2085 1.07195 0.0987444 1.46342 0.0694761C1.79268 0.0402078 2.15488 0.0255737 2.55732 0.0255737C3.18659 0.0255737 3.63659 0.0621591 3.90366 0.13533C4.55854 0.31094 4.88415 0.801184 4.88415 1.60972C4.89512 1.68289 4.89146 1.78167 4.88049 1.91338Z" fill="#00489A"/>
<path d="M11.4841 6V0.00366211H13.8366H14.2061H14.4914C14.9049 0.00366211 15.2195 0.0365891 15.4354 0.106101C15.9293 0.25976 16.2622 0.578052 16.4305 1.05732C16.5183 1.30976 16.5622 1.68659 16.5622 2.19513C16.5622 2.80244 16.5146 3.24147 16.4158 3.50854C16.2219 4.03537 15.8268 4.33903 15.2268 4.41586C15.1573 4.42683 14.8573 4.43781 14.3268 4.44513L14.0597 4.45244H13.0975V6H11.4841ZM13.0975 3.05854H14.1036C14.4219 3.04756 14.6158 3.02196 14.6853 2.98537C14.7805 2.93415 14.8463 2.82805 14.8756 2.67074C14.8939 2.56464 14.9049 2.41098 14.9049 2.20244C14.9049 1.95 14.8866 1.75976 14.8427 1.63903C14.7841 1.46708 14.6451 1.36098 14.4256 1.32439C14.3817 1.31708 14.2793 1.31708 14.111 1.31708H13.0902V3.05854H13.0975Z" fill="#00489A"/>
<path d="M20.0086 4.96098H17.85L17.561 5.99634H15.889L17.6927 0H20.1256L21.9512 5.99634H20.3159L20.0086 4.96098ZM19.6866 3.7939L18.9293 1.19634L18.1939 3.7939H19.6866Z" fill="#00489A"/>
<path d="M9.25612 0.845114C9.92197 0.845114 10.5147 1.15243 10.9061 1.6317L11.2537 0.885358C10.7086 0.373163 9.96953 0.0548706 9.15368 0.0548706C7.88051 0.0548706 6.79392 0.823163 6.34758 1.90975H5.67075L5.26831 2.76951H6.1427C6.13538 2.84999 6.13173 2.93048 6.13173 3.01097C6.13173 3.10975 6.13904 3.20487 6.14636 3.30365H5.70733L5.3049 4.16341H6.36587C6.82319 5.22438 7.8988 5.96707 9.15002 5.96707C9.77929 5.96707 10.3647 5.77682 10.8512 5.45487V4.40121C10.4598 4.84755 9.88904 5.1256 9.25246 5.1256C8.50977 5.1256 7.8549 4.74146 7.47075 4.15975H9.69514L10.0939 3.29999H7.1488C7.13416 3.19755 7.12319 3.09146 7.12319 2.98536C7.12319 2.91219 7.12685 2.83902 7.13416 2.76951H10.3464L10.7488 1.90975H7.41587C7.78538 1.27316 8.46953 0.845114 9.25612 0.845114Z" fill="#FDC300"/>
<path d="M9.25607 0.870699C9.889 0.870699 10.4853 1.15241 10.8878 1.64997L10.9134 1.68289L10.9317 1.64631L11.2792 0.899967L11.2866 0.881674L11.2719 0.867041C10.7012 0.325577 9.94754 0.0292358 9.15363 0.0292358C8.53168 0.0292358 7.93534 0.212162 7.4268 0.556065C6.92924 0.888992 6.54876 1.35728 6.32558 1.90241L6.35119 1.88777H5.67071H5.65241L5.6451 1.90241L5.24266 2.76216L5.22437 2.79875H5.26461H6.139L6.11339 2.76948C6.10607 2.85728 6.10241 2.93777 6.10241 3.01094C6.10241 3.10607 6.10607 3.20485 6.11705 3.30729L6.14266 3.27802H5.70363H5.689L5.68168 3.29265L5.27924 4.15241L5.26095 4.18899H5.30119H6.36217L6.33656 4.17436C6.81583 5.27924 7.91705 5.99265 9.14632 5.99265C9.76095 5.99265 10.3536 5.81338 10.8622 5.4768L10.8731 5.46948V5.45485V4.40119V4.33168L10.8292 4.38289C10.4305 4.83655 9.85607 5.09997 9.25241 5.09997C8.54266 5.09997 7.88412 4.74509 7.49266 4.14875L7.47071 4.18899H9.6951H9.70973L9.71705 4.17436L10.1158 3.3146L10.1341 3.27802H10.1012H7.15241L7.17802 3.29997C7.16339 3.19753 7.15607 3.09143 7.15607 2.98533C7.15607 2.91582 7.15973 2.84265 7.16705 2.77314L7.14144 2.79509H10.3536H10.3719L10.3792 2.78046L10.778 1.9207L10.7963 1.88411H10.7561H7.41583L7.43778 1.92436C7.81461 1.27314 8.50973 0.870699 9.25607 0.870699ZM7.41583 1.93533H10.7524L10.7305 1.89875L10.328 2.7585L10.35 2.74387H7.13778H7.11583L7.11217 2.76582C7.10485 2.83899 7.10119 2.91216 7.10119 2.98533C7.10119 3.09143 7.10851 3.19753 7.1268 3.30729L7.13046 3.32924H7.15241H10.1012L10.0792 3.29265L9.68046 4.15241L9.70241 4.13777H7.47802H7.43046L7.45607 4.17802C7.85485 4.78899 8.53168 5.15485 9.25607 5.15485C9.87437 5.15485 10.4634 4.88777 10.8731 4.42314L10.8292 4.40485V5.4585L10.8402 5.43655C10.3427 5.76948 9.75729 5.94509 9.15363 5.94509C7.94632 5.94509 6.86339 5.24265 6.39144 4.15606L6.38412 4.14143H6.36949H5.30851L5.33412 4.17802L5.7329 3.31826L5.71095 3.33289H6.14998H6.17924L6.17558 3.30363C6.16461 3.2085 6.16095 3.10972 6.16095 3.0146C6.16095 2.94143 6.16461 2.8646 6.17193 2.7768L6.17558 2.74753H6.14632H5.26827L5.29022 2.78411L5.69266 1.92436L5.67071 1.93899H6.34754H6.36583L6.37315 1.92436C6.59266 1.38655 6.96949 0.929236 7.45607 0.599967C7.95729 0.263382 8.54266 0.0841139 9.15363 0.0841139C9.9329 0.0841139 10.6756 0.376797 11.239 0.907285L11.2317 0.878016L10.8841 1.62436L10.928 1.61704C10.5183 1.11216 9.90729 0.819479 9.25607 0.819479C8.49144 0.819479 7.77802 1.23289 7.39388 1.89875L7.37193 1.93533H7.41583Z" fill="#00489A"/>
</svg>
