<svg width="10" height="6" viewBox="0 0 10 6" fill="none" xmlns="http://www.w3.org/2000/svg">
<path d="M7.95349 0.725286C7.92324 0.695982 7.87032 0.695982 7.84764 0.725286L4.98981 3.44324C4.95957 3.47254 4.92932 3.52382 4.9142 3.56778L4.49082 4.87914C4.4757 4.91577 4.49838 4.93775 4.53618 4.91577L5.85925 4.28573C5.89706 4.27108 5.94998 4.22712 5.98022 4.20514L8.75489 1.56045C8.78513 1.53115 8.78513 1.48719 8.75489 1.45789L7.95349 0.725286ZM5.65512 3.61174C5.62488 3.64104 5.57196 3.67034 5.5266 3.685C5.5266 3.685 5.39051 3.73628 5.30734 3.65569C5.23174 3.57511 5.28466 3.44324 5.28466 3.44324C5.29978 3.40661 5.33759 3.35533 5.36783 3.32602L7.63595 1.21613C7.66619 1.18683 7.71911 1.15752 7.76447 1.14287C7.76447 1.14287 7.90056 1.09159 7.98373 1.17217C8.05933 1.25276 8.00641 1.38463 8.00641 1.38463C7.99129 1.42126 7.95348 1.47254 7.92324 1.50184L5.65512 3.61174Z" fill="#067DC8"/>
<path d="M8.09714 0.520147C8.0669 0.549451 8.0669 0.593407 8.09714 0.622711L8.90611 1.34799C8.93635 1.37729 8.98171 1.36997 9.01195 1.34066L9.49582 0.813188C9.52606 0.783884 9.5185 0.732602 9.48826 0.710624L8.70954 0.021978C8.67929 -0.00732602 8.62637 -0.00732602 8.60369 0.021978L8.09714 0.520147Z" fill="#067DC8"/>
<path d="M7.99135 2.40293L7.55284 2.81319H7.75697V5.80953H0.234372V2.81319H5.54934L6.91777 1.50183H0V6H7.99135V2.40293Z" fill="#858882"/>
<path d="M4.64207 4.17582L4.77816 3.75092H0.68042V4.17582H4.64207Z" fill="#858882"/>
<path d="M7.34875 4.72528H5.10331L4.34727 5.09158L4.46068 4.72528H0.619995V5.16484H7.34875V4.72528Z" fill="#858882"/>
</svg>
